<?xml version="1.0" standalone="no"?>
<!DOCTYPE svg PUBLIC "-//W3C//DTD SVG 1.1//EN" "http://www.w3.org/Graphics/SVG/1.1/DTD/svg11.dtd" >
<!--
2013-9-30: Created.
-->
<svg>
<metadata>
Created by iconfont
</metadata>
<defs>

<font id="icon" horiz-adv-x="1024" >
  <font-face
    font-family="icon"
    font-weight="500"
    font-stretch="normal"
    units-per-em="1024"
    ascent="896"
    descent="-128"
  />
    <missing-glyph />
    
    <glyph glyph-name="checkbox-active" unicode="&#58941;" d="M774.50000029 721.5L249.49999971 721.5C208.25 721.5 174.5 687.75 174.5 646.50000029l0-524.99999971c0-41.24999971 33.75-74.99999971 74.99999971-74.99999969l524.99999971 0c41.24999971 0 74.99999971 33.75 74.99999969 74.99999969L849.5 646.50000029C849.5 687.75 815.75 721.5 774.50000029 721.5zM437.00000029 196.50000029l-187.49999971 187.49999971 52.49999971 52.49999971 135-135 285.00000029 285.00000029L774.50000029 534.00000029 437.00000029 196.50000029z"  horiz-adv-x="1024" />

    
    <glyph glyph-name="checkbox" unicode="&#58942;" d="M758.09375027 700.40625H265.90624973c-38.67187473 0-70.31249973-31.640625-70.31249973-70.31249973v-492.18750054c0-38.67187473 31.640625-70.31249973 70.31249973-70.31249973h492.18750054c38.67187473 0 70.31249973 31.640625 70.31249973 70.31249973V630.09375027c0 38.67187473-31.640625 70.31249973-70.31249973 70.31249973z"  horiz-adv-x="1024" />

    
    <glyph glyph-name="pause-btn" unicode="&#59060;" d="M511.47999969 804c-203.83999969 0-382.72000031-148.63999969-414.55999969-356.32000031-35.20000031-229.24000031 122.16-443.59999969 351.40000031-478.8 21.6-3.28000031 43.03999969-4.87999969 64.2-4.87999969 203.83999969 0 382.72000031 148.63999969 414.55999969 356.32000031 35.20000031 229.24000031-122.16 443.59999969-351.40000031 478.8a423.36000001 423.36000001 0 0 1-64.2 4.87999969m0-59.99999999c18.28000031 0 36.79999969-1.44 55.08-4.20000001a358.8 358.8 0 0 0 235.60000031-142.8 358.8 358.8 0 0 0 65.59999969-267.6 358.56 358.56 0 0 0-122.4-219.40000031 359.83999969 359.83999969 0 0 0-523.51999969 61.00000031 358.8 358.8 0 0 0-65.59999969 267.6A358.56 358.56 0 0 0 278.6 658.00000031 359.83999969 359.83999969 0 0 0 511.47999969 744.00000001M602 534a30 30 0 0 1-30-30.00000001v-239.99999998a30 30 0 0 1 60.00000001-2e-8V504.00000001a30 30 0 0 1-30.00000001 29.99999999M422 534A30 30 0 0 1 391.99999999 504.00000001v-240.00000002a30 30 0 0 1 60.00000001 2e-8V504.00000001a30 30 0 0 1-30 29.99999999"  horiz-adv-x="1024" />

    
    <glyph glyph-name="dibu" unicode="&#58998;" d="M487.8 245.6c13.4-13.4 35.1-13.4 48.5 0l171.3 171.3c13.4 13.4 13.4 35.1 0 48.5-13.4 13.4-35.1 13.4-48.5 0L546.3 352.5V658.1c0 18.9-15.3 34.3-34.3 34.3-18.9 0-34.3-15.3-34.3-34.3v-305.6L364.9 465.3c-13.4 13.4-35.1 13.4-48.4 0s-13.4-35.1 0-48.5l171.3-171.2zM317.9 144.2c-18.9 0-34.3-15.3-34.3-34.3 0-18.9 15.3-34.3 34.3-34.3h388.3c18.9 0 34.3 15.3 34.3 34.3 0 18.9-15.3 34.3-34.3 34.3H317.9z"  horiz-adv-x="1024" />

    
    <glyph glyph-name="dingbu" unicode="&#58997;" d="M536.2 682.3c-13.4 13.4-35.1 13.4-48.5 0L316.5 511c-13.4-13.4-13.4-35.1 0-48.5 13.4-13.4 35.1-13.4 48.5 0l112.8 112.8v-305.6c0-18.9 15.3-34.3 34.3-34.3 18.9 0 34.3 15.3 34.3 34.3V575.4l112.8-112.8c13.4-13.4 35.1-13.4 48.4 0 13.4 13.4 13.4 35.1 0 48.5L536.2 682.3zM317.9 144.2c-18.9 0-34.3-15.3-34.3-34.3 0-18.9 15.3-34.3 34.3-34.3h388.3c18.9 0 34.3 15.3 34.3 34.3 0 18.9-15.3 34.3-34.3 34.3H317.9z"  horiz-adv-x="1024" />

    
    <glyph glyph-name="volume" unicode="&#59223;" d="M499.81032562 632.56739045l-178.11756134-141.98884965-137.86382675 0 0-109.89246368-0.09269715-0.06952286 0.09269715-0.06952286 0-108.75692367 138.58222961-1e-8 177.42233277-139.23110961 0 139.23110961 0.04634857 1e-8 0 218.78843307-0.04634857 0 0 141.98884965 0-1e-8zM475.54684829 296.07675933999997l-0.04634856 1e-8 0-113.55400087-144.70024109 113.55400087-122.66149521-1e-8 0 170.16878128 122.05896377 0 145.32594682 115.84825516-1e-8-91.53842927 0.04634857-24.30982589 0-170.16878128 0 1e-8zM556.63367462 506.15166092c26.4418602-35.24808884 40.43912888-77.23989487 40.43912888-121.45643234 0-45.14350891-14.53027725-87.8537178-41.99180604-123.51894379l19.28100586-14.83154297c30.77545166 39.95246888 47.02062608 87.78419495 47.02062608 138.35048676 0 49.52344895-15.66581726 96.5672493-45.30572892 136.03305816l-19.44322586-14.59980011zM654.56820679 594.2602958699999l-18.74799729-15.48042297c45.67651748-55.31702041 70.84379197-125.37288667 70.84379196-197.25952148 0-71.05236054-23.38285447-137.86382676-67.59939194-193.25037004l19.02608873-15.17915726c47.66950608 59.74330902 72.88312912 131.79216384 72.88312911 208.4295273 0 77.54116058-27.13708877 153.08933258-76.40562057 212.73994445zM730.23225022 673.1919136l-18.23816301-16.05978012c67.04320908-76.12752915 103.9598465-174.03888703 103.95984651-275.70447921 0-99.60308076-35.6420517-196.00811005-100.32148362-271.4867592l18.44673157-15.80486296c68.50318909 79.85858917 106.18457795 181.89496994 106.18457795 287.29162216 0 107.5750351-39.07184602 211.18726731-110.0315094 291.76425933z"  horiz-adv-x="1024" />

    
    <glyph glyph-name="wifi" unicode="&#59136;" d="M225.60768 447.81568c72.78592 83.31264 179.13856 131.09248 291.77856 131.09248 112.66048 0 219.01312-47.80032 291.77856-131.11296a20.3776 20.3776 0 0 1 28.8768-1.96608 20.48 20.48 0 0 1 1.96608 28.8768c-80.54784 92.2624-198.12352 145.16224-322.62144 145.16224-124.47744 0-242.05312-52.87936-322.62144-145.1008a20.48 20.48 0 0 1 30.84288-26.95168zM724.31616 366.61248a20.39808 20.39808 0 0 1 28.79488-2.94912 20.48 20.48 0 0 1 2.9696 28.79488c-58.1632 71.49568-145.18272 112.49664-238.6944 112.49664-93.4912 0-180.49024-41.00096-238.6944-112.45568a20.48 20.48 0 1 1 31.76448-25.86624c50.3808 61.87008 125.82912 97.3824 206.92992 97.3824 81.14176-0.02048 156.5696-35.51232 206.92992-97.40288zM637.41952 287.27296a20.52096 20.52096 0 0 1 33.60768 23.4496c-34.67264 49.68448-92.09856 79.33952-153.64096 79.33952-62.464 0-120.36096-30.35136-154.91072-81.18272a20.50048 20.50048 0 0 1 33.8944-23.04c26.91072 39.6288 72.15104 63.26272 121.0368 63.26272 48.128 0 93.02016-23.12192 120.0128-61.82912zM476.42624 209.63328a40.96 40.32512 0 1 1 81.92 0 40.96 40.32512 0 1 1-81.92 0Z"  horiz-adv-x="1024" />

    
    <glyph glyph-name="microphone" unicode="&#58915;" d="M512 212.44870238a162.87774539 162.87774539 0 0 0-162.69270958 162.69270959v216.95445267C349.30729042 681.79195917 422.35016424 754.78857422 512 754.78857422s162.69270958-72.99661505 162.69270958-162.69270958v-216.90819391A162.83148662 162.83148662 0 0 0 512 212.44870238zM512 718.61407882a126.65699195 126.65699195 0 0 1-126.51821491-126.51821418v-216.90819391A126.74950949 126.74950949 0 0 1 512 248.62319706000005a126.74950949 126.74950949 0 0 1 126.56447367 126.56447367V592.09586464A126.65699195 126.65699195 0 0 1 512 718.61407882zM512 122.01246460000004c-149.50891048 0-271.16993629 122.72498117-271.16993629 273.57540109V519.79313333a18.04098893 18.04098893 0 1 0 36.17449541 1e-8v-124.20526765c0-130.91281484 105.42413547-237.35464692 234.99544088-237.35464692s235.04169966 106.48809157 235.04169966 237.35464692V519.79313333a18.04098893 18.04098893 0 1 0 36.17449539 1e-8v-124.20526765c-0.04625878-150.80416115-121.6610258-273.57540109-271.21619505-273.57540109zM674.73896908 13.62775615999999H349.30729042a18.04098893 18.04098893 0 0 0 0 36.22075418h325.38541916a18.13350647 18.13350647 0 0 0 0.0462595-36.22075418zM512 13.62775615999999a18.04098893 18.04098893 0 0 0-18.0872477 18.08724772v90.3437195a18.0872477 18.0872477 0 1 0 36.17449541 0v-90.3437195a17.99472944 17.99472944 0 0 0-18.08724771-18.08724772z"  horiz-adv-x="1024" />

    
    <glyph glyph-name="sun" unicode="&#59373;" d="M512 574.10156393c-104.96322066 0-190.10156393-85.13834328-190.10156393-190.10156393s85.13834328-190.10156393 190.10156393-190.10156393 190.10156393 85.13834328 190.10156393 190.10156393-85.13834328 190.10156393-190.10156393 190.10156393z m110.39469391-300.49625784c-14.32551071-14.32551071-31.02729097-25.59581772-49.63008687-33.47145395-19.21383665-8.14720987-39.64975477-12.28870823-60.76460704-12.28870823s-41.5507704 4.14149836-60.76460705 12.28870823c-18.6027959 7.87563623-35.30457616 19.14594322-49.63008686 33.47145395-14.32551071 14.32551071-25.59581772 31.02729097-33.47145394 49.63008687-8.14720987 19.21383665-12.28870823 39.64975477-12.28870824 60.76460704s4.14149836 41.5507704 12.28870824 60.76460705c7.87563623 18.6027959 19.14594322 35.30457616 33.47145394 49.63008686 14.32551071 14.32551071 31.02729097 25.59581772 49.63008687 33.47145394 19.21383665 8.14720987 39.64975477 12.28870823 60.76460704 12.28870824s41.5507704-4.14149836 60.76460705-12.28870824c18.6027959-7.87563623 35.30457616-19.14594322 49.63008686-33.47145394 14.32551071-14.32551071 25.59581772-31.02729097 33.47145394-49.63008687 8.14720987-19.21383665 12.28870823-39.64975477 12.28870824-60.76460704s-4.14149836-41.5507704-12.28870824-60.76460705c-7.8077428-18.6027959-19.07804981-35.30457616-33.47145394-49.63008686zM528.97335391 619.52225903h-33.94670782v67.89341567h33.94670782v-67.89341567z m-33.94670782-471.04451806h33.94670782v-67.89341568h-33.94670782v67.89341568zM333.44031673 538.5254141099999l-48.00064488 48.00064489 24.03426915 24.03426915 48.00064489-48.00064488-24.03426916-24.03426916z m357.11936654-309.05082822l48.00064488-48.0006449-24.03426914-24.03426914-48.0006449 48.00064488 24.03426916 24.03426916zM208.58432529 400.97335391h67.89341568v-33.94670782h-67.89341567v33.94670782z m606.83134942 0v-33.94670782h-67.89341568v33.94670782h67.89341568zM333.44031673 229.47458588999996l24.03426916-24.03426916-48.00064489-48.00064488-24.03426915 24.03426915 48.00064488 48.00064489z m381.08574228 381.08574226l24.03426913-24.03426915-48.00064487-48.00064489-24.03426916 24.03426916 48.0006449 48.00064488z"  horiz-adv-x="1024" />

    
    <glyph glyph-name="lockclose" unicode="&#58931;" d="M718.32986165 505.00377803H668.42642975v39.10660743C668.42642975 638.1929483399999 601.12339187 709.17994258 512 709.17994258c-89.12339187 0-156.42642975-70.84530345-156.42642975-165.06955711v-39.24829823H305.67013835c-9.55561422 0-17.39960662-7.7929832-17.39960599-17.28625347v-411.61121241c0-9.49327088 7.84399174-17.2862541 17.39960599-17.28625412H718.18817085c9.55561422 0 17.39960662 7.7929832 17.39960662 17.28625412V487.71752394c0.1416908 9.49327088-7.70230157 17.2862541-17.25791582 17.28625409z m-327.96274622 39.10660743c0 74.38756836 52.33484258 130.49704892 121.63288457 130.49704892 69.29804199 0 121.62721653-56.10947993 121.62721653-130.49704892v-39.24829822H390.37278347V544.11038546z m310.56880703-450.85951002H323.06407754V470.43126984h377.87184492v-377.1803944zM494.60039338 275.46499522v-62.76893864c0-9.49327088 7.84399174-17.2862541 17.39960662-17.2862541s17.39960662 7.7929832 17.39960662 17.2862541V275.46499522c10.25840019 5.95100535 17.39393857 16.57780073 17.39393856 29.18826478 0 19.12823196-15.54629331 34.57250819-34.79354518 34.57250818-19.24725187 0-34.79354518-15.44427624-34.79354518-34.57250818 0-12.61046405 7.27156177-23.23725944 17.39960661-29.18826478z"  horiz-adv-x="1024" />

    
    <glyph glyph-name="bluetooth" unicode="&#58946;" d="M701.05273437 254.37231444999998l0.07415772 0.08651735L549.98110962 384l151.13342285 129.54116822-0.07415771 0.08651733c5.289917 4.53598023 8.71353149 11.18545532 8.71353149 18.68774414a24.59564209 24.59564209 0 0 1-8.70117188 18.68774414l0.07415772 0.08651734-173.03466797 148.31542968-0.07415771-0.08651732C523.69219971 703.0264892499999 518.14273071 705.35009765 512 705.35009765a24.71923828 24.71923828 0 0 1-24.71923828-24.71923829v-242.87887572l-132.22320557 113.33770753-0.07415771-0.08651734c-4.32586669 3.70788575-9.8753357 6.03149414-16.01806641 6.03149414a24.71923828 24.71923828 0 0 1-24.71923828-24.71923828c0-7.50228882 3.4236145-14.15176391 8.70117188-18.68774414l-0.07415772-0.08651735L474.01889038 384 322.87310791 254.45883177999997l0.07415772-0.08651733A24.59564209 24.59564209 0 0 1 314.24609375 235.68457031000003a24.71923828 24.71923828 0 0 1 24.71923828-24.71923828c6.14273071 0 11.69219971 2.32360841 16.01806641 6.03149414l0.07415771-0.08651734L487.28076172 330.24801635999995V87.36914062000005a24.71923828 24.71923828 0 0 1 24.71923828-24.71923829c6.14273071 0 11.69219971 2.32360841 16.01806641 6.03149414l0.07415771-0.08651732 173.03466797 148.31542968-0.07415772 0.08651734A24.59564209 24.59564209 0 0 1 709.75390625 235.68457031000003a24.59564209 24.59564209 0 0 1-8.70117188 18.68774414zM647.05355835 235.68457031000003L536.71923828 141.12112426V330.24801635999995L647.05355835 235.68457031000003zM536.71923828 437.75198364V626.87887574L647.05355835 532.31542969 536.71923828 437.75198364z"  horiz-adv-x="1024" />

    
    <glyph glyph-name="kod-qr" unicode="&#59209;" d="M449.44516156 455.22580688V649.08387094H255.58709657V455.22580688h193.85806499m0-44.59354875H255.58709657c-24.77419313 0-44.59354875 19.81935469-44.59354782 44.59354875V649.08387094c0 24.77419313 19.81935469 44.59354875 44.5935478 44.59354875h193.85806501c24.77419313 0 44.59354875-19.81935469 44.59354781-44.59354875V455.22580688c0-24.77419313-19.81935469-44.59354875-44.59354781-44.59354875zM449.44516156 112.72258031000001V306.58064531H255.58709657v-193.858065h193.85806499m0-44.59354781H255.58709657c-24.77419313 0-44.59354875 19.81935469-44.59354782 44.59354781V306.58064531c0 24.77419313 19.81935469 44.59354875 44.5935478 44.59354782h193.85806501c24.77419313 0 44.59354875-19.81935469 44.59354781-44.59354782v-193.858065c0-24.77419313-19.81935469-44.59354875-44.59354781-44.59354781zM791.94838719 455.22580688V649.08387094H598.09032219V455.22580688h193.858065m0-44.59354875H598.09032219c-24.77419313 0-44.59354875 19.81935469-44.59354781 44.59354875V649.08387094c0 24.77419313 19.81935469 44.59354875 44.59354781 44.59354875h193.858065c24.77419313 0 44.59354875-19.81935469 44.59354875-44.59354875V455.22580688c0-24.77419313-19.81935469-44.59354875-44.59354875-44.59354875zM552.87741969 320.20645125l238.45161281-238.45161281c8.6709675-8.6709675 22.91612906-8.6709675 31.58709656 0 8.6709675 8.6709675 8.6709675 22.91612906 0 31.5870975L584.46451625 351.79354875c-8.6709675 8.6709675-22.91612906 8.6709675-31.58709656 0-8.6709675-8.6709675-8.6709675-22.91612906 0-31.5870975M798.14193594 344.36129063l-237.83225813-237.83225813c-8.6709675-8.6709675-8.6709675-22.91612906 0-31.58709656 8.6709675-8.6709675 22.91612906-8.6709675 31.58709657 0L829.7290325 312.77419311999995c8.6709675 8.6709675 8.6709675 22.91612906 0 31.5870975-8.6709675 8.6709675-22.91612906 8.6709675-31.58709656 0M329.90967781 231.63870937000002h44.59354781v-44.59354781h-44.59354781v44.59354782zM329.90967781 574.7612906300001h44.59354781v-44.59354875h-44.59354781v44.59354875zM673.03225812 574.7612906300001h44.59354876v-44.59354875h-44.59354875v44.59354875z"  horiz-adv-x="1024" />

    
    <glyph glyph-name="moon" unicode="&#59152;" d="M552.70434545 61.00195338000003A329.589844 329.589844 0 0 0 339.62451147 641.57446289a323.82202148 323.82202148 0 0 0 117.82836964 64.10522486 32.95898463 32.95898463 0 0 0 35.10131836-10.87646484A32.95898463 32.95898463 0 0 0 495.52050807 658.38354492a294.32373022 294.32373022 0 0 1 2.63671849-291.68701172 296.63085938 296.63085938 0 0 1 268.28613307-148.31542968 32.95898463 32.95898463 0 0 0 30.81665014-19.1162112 32.95898463 32.95898463 0 0 0-5.10864233-36.25488255 328.27148438 328.27148438 0 0 0-239.44702199-102.00805639z m-85.69335912 613.36669871a293.17016602 293.17016602 0 0 1-106.12792994-58.00781225A296.63085938 296.63085938 0 1 1 767.59692383 186.24609375a329.589844 329.589844 0 0 0-297.78442358 164.79492162 327.28271484 327.28271484 0 0 0-2.80151392 323.32763672z"  horiz-adv-x="1024" />

    
    <glyph glyph-name="qr-scanner" unicode="&#58975;" d="M202.62499973 362.90625h618.75000054a21.09375 21.09375 0 0 1 0 42.1875H202.62499973a21.09375 21.09375 0 0 1 0-42.1875zM251.84375027 524.62500027v56.24999946c0 34.31250027 28.71562473 63.28125 63.28125 63.28125h393.74999946c34.56562527 0 63.28125-28.96874973 63.28125-63.28125v-56.24999946a21.09375 21.09375 0 0 1 42.1875 0v56.24999946c0 57.54375-47.53124973 105.46875-105.46875 105.46875H315.12500027c-57.93750027 0-105.46875-47.925-105.46875-105.46875v-56.24999946a21.09375 21.09375 0 0 1 42.1875 0z m520.31249946-281.25000054v-56.24999946c0-35.6484375-27.8859375-63.28125-63.28125-63.28125H315.12500027c-35.3953125 0-63.28125 27.6328125-63.28125 63.28125v56.24999946a21.09375 21.09375 0 0 1-42.1875 0v-56.24999946c0-59.03437527 46.8703125-105.46875 105.46875-105.46875h393.74999946c58.5984375 0 105.46875 46.43437473 105.46875 105.46875v56.24999946a21.09375 21.09375 0 0 1-42.1875 0z"  horiz-adv-x="1024" />

    
    <glyph glyph-name="menu-right" unicode="&#59083;" d="M330.666667 667.733333h91.733333c4.266667 0 8.533333-2.133333 12.8-4.266666l268.8-268.8c2.133333-2.133333 4.266667-6.4 4.266667-10.666667s-2.133333-6.4-4.266667-10.666667l-268.8-268.8c-4.266667-4.266667-8.533333-4.266667-12.8-4.266666h-91.733333c-6.4 0-10.666667 2.133333-12.8 6.4s0 8.533333 4.266666 12.8l264.533334 264.533333-264.533334 264.533333c-4.266667 4.266667-6.4 8.533333-4.266666 12.8 2.133333 4.266667 6.4 6.4 12.8 6.4z"  horiz-adv-x="1024" />

    
    <glyph glyph-name="menu-up" unicode="&#59084;" d="M522.666667 573.866667l268.8-268.8c4.266667-4.266667 4.266667-8.533333 4.266666-12.8v-91.733334c0-6.4-2.133333-10.666667-6.4-12.8-4.266667-2.133333-8.533333 0-12.8 4.266667l-264.533333 264.533333-264.533333-264.533333c-4.266667-4.266667-8.533333-6.4-12.8-4.266667-4.266667 2.133333-6.4 6.4-6.4 12.8v91.733334c0 4.266667 2.133333 8.533333 4.266666 12.8l268.8 268.8c2.133333 2.133333 6.4 4.266667 10.666667 4.266666s6.4 0 10.666667-4.266666z"  horiz-adv-x="1024" />

    
    <glyph glyph-name="minus-sign" unicode="&#59085;" d="M512 712.533333c44.8 0 87.466667-8.533333 128-25.6 40.533333-17.066667 74.666667-40.533333 104.533333-70.4 29.866667-29.866667 53.333333-64 70.4-104.533333 17.066667-40.533333 25.6-83.2 25.6-128s-8.533333-87.466667-25.6-128c-17.066667-40.533333-40.533333-74.666667-70.4-104.533333-29.866667-29.866667-64-53.333333-104.533333-70.4-40.533333-17.066667-83.2-25.6-128-25.6s-87.466667 8.533333-128 25.6c-40.533333 17.066667-74.666667 40.533333-104.533333 70.4-29.866667 29.866667-53.333333 64-70.4 104.533333-17.066667 40.533333-25.6 83.2-25.6 128s8.533333 87.466667 25.6 128c17.066667 40.533333 40.533333 74.666667 70.4 104.533333 29.866667 29.866667 64 53.333333 104.533333 70.4 40.533333 17.066667 83.2 25.6 128 25.6z m142.933333-270.933333h-283.733333c-8.533333 0-14.933333-2.133333-19.2-8.533333s-8.533333-12.8-8.533333-19.2v-57.6c0-8.533333 2.133333-14.933333 8.533333-19.2 6.4-6.4 12.8-8.533333 19.2-8.533334h283.733333c8.533333 0 14.933333 2.133333 19.2 8.533334 6.4 6.4 8.533333 12.8 8.533334 19.2v57.6c0 8.533333-2.133333 14.933333-8.533334 19.2-4.266667 4.266667-12.8 8.533333-19.2 8.533333z"  horiz-adv-x="1024" />

    
    <glyph glyph-name="music" unicode="&#59087;" d="M405.333333 625.066667l366.933334 91.733333c14.933333 6.4 27.733333 6.4 36.266666 0s12.8-14.933333 12.8-27.733333v-473.6c0-21.333333-8.533333-38.4-23.466666-53.333334-14.933333-14.933333-36.266667-27.733333-64-36.266666-29.866667-8.533333-57.6-10.666667-83.2-2.133334-25.6 8.533333-42.666667 21.333333-49.066667 42.666667-6.4 21.333333-2.133333 42.666667 14.933333 64 17.066667 21.333333 40.533333 36.266667 70.4 46.933333 27.733333 8.533333 53.333333 10.666667 78.933334 4.266667v296.533333l-341.333334-87.466666v-345.6c0-14.933333-8.533333-32-25.6-51.2-17.066667-19.2-38.4-32-61.866666-38.4-29.866667-10.666667-57.6-10.666667-83.2-2.133334-25.6 8.533333-42.666667 21.333333-49.066667 42.666667-6.4 21.333333-2.133333 42.666667 14.933333 64 17.066667 21.333333 40.533333 36.266667 70.4 46.933333 27.733333 8.533333 53.333333 10.666667 78.933334 4.266667v362.666667c0 14.933333 2.133333 25.6 8.533333 34.133333 4.266667 6.4 12.8 12.8 27.733333 17.066667z"  horiz-adv-x="1024" />

    
    <glyph glyph-name="option-horizontal" unicode="&#59093;" d="M283.733333 469.333333c23.466667 0 42.666667-8.533333 59.733334-25.6 17.066667-17.066667 25.6-36.266667 25.6-59.733333 0-23.466667-8.533333-42.666667-25.6-59.733333-17.066667-17.066667-36.266667-25.6-59.733334-25.6s-42.666667 8.533333-59.733333 25.6c-17.066667 17.066667-25.6 36.266667-25.6 59.733333s8.533333 42.666667 25.6 59.733333c17.066667 17.066667 36.266667 25.6 59.733333 25.6z m228.266667 0c23.466667 0 42.666667-8.533333 59.733333-25.6 17.066667-17.066667 25.6-36.266667 25.6-59.733333 0-23.466667-8.533333-42.666667-25.6-59.733333-17.066667-17.066667-36.266667-25.6-59.733333-25.6s-42.666667 8.533333-59.733333 25.6c-17.066667 17.066667-25.6 36.266667-25.6 59.733333 0 23.466667 8.533333 42.666667 25.6 59.733333 17.066667 17.066667 36.266667 25.6 59.733333 25.6z m228.266667 0c23.466667 0 42.666667-8.533333 59.733333-25.6 17.066667-17.066667 25.6-36.266667 25.6-59.733333 0-23.466667-8.533333-42.666667-25.6-59.733333-17.066667-17.066667-36.266667-25.6-59.733333-25.6s-42.666667 8.533333-59.733334 25.6c-17.066667 17.066667-25.6 36.266667-25.6 59.733333 0 23.466667 8.533333 42.666667 25.6 59.733333 14.933333 17.066667 36.266667 25.6 59.733334 25.6z"  horiz-adv-x="1024" />

    
    <glyph glyph-name="ok-circle" unicode="&#59091;" d="M512 712.533333c44.8 0 87.466667-8.533333 128-25.6 40.533333-17.066667 74.666667-40.533333 104.533333-70.4 29.866667-29.866667 53.333333-64 70.4-104.533333 17.066667-40.533333 25.6-83.2 25.6-128s-8.533333-87.466667-25.6-128c-17.066667-40.533333-40.533333-74.666667-70.4-104.533333-29.866667-29.866667-64-53.333333-104.533333-70.4-40.533333-17.066667-83.2-25.6-128-25.6s-87.466667 8.533333-128 25.6c-40.533333 17.066667-74.666667 40.533333-104.533333 70.4-29.866667 29.866667-53.333333 64-70.4 104.533333-17.066667 40.533333-25.6 83.2-25.6 128s8.533333 87.466667 25.6 128c17.066667 40.533333 40.533333 74.666667 70.4 104.533333 29.866667 29.866667 64 53.333333 104.533333 70.4 40.533333 17.066667 83.2 25.6 128 25.6z m0-85.333333c-44.8 0-85.333333-10.666667-121.6-32-38.4-21.333333-66.133333-51.2-87.466667-87.466667-21.333333-38.4-32-78.933333-32-121.6 0-44.8 10.666667-85.333333 32-121.6 21.333333-38.4 51.2-66.133333 87.466667-87.466666 38.4-21.333333 78.933333-32 121.6-32 44.8 0 85.333333 10.666667 121.6 32 38.4 21.333333 66.133333 51.2 87.466667 87.466666 21.333333 38.4 32 78.933333 32 121.6 0 44.8-10.666667 85.333333-32 121.6-21.333333 38.4-51.2 66.133333-87.466667 87.466667-36.266667 21.333333-76.8 32-121.6 32z m104.533333-136.533333l59.733334-59.733334c2.133333-2.133333 4.266667-6.4 4.266666-10.666666s-2.133333-6.4-4.266666-10.666667l-181.333334-183.466667c-2.133333-2.133333-6.4-4.266667-10.666666-4.266666s-6.4 2.133333-10.666667 4.266666l-115.2 115.2c-2.133333 2.133333-4.266667 6.4-4.266667 10.666667s2.133333 6.4 4.266667 10.666667l59.733333 59.733333c2.133333 2.133333 6.4 4.266667 10.666667 4.266667s6.4-2.133333 10.666667-4.266667l44.8-44.8 113.066666 113.066667c2.133333 2.133333 6.4 4.266667 10.666667 4.266666 2.133333 0 4.266667-2.133333 8.533333-4.266666z"  horiz-adv-x="1024" />

    
    <glyph glyph-name="option-vertical" unicode="&#59094;" d="M512 697.6c23.466667 0 42.666667-8.533333 59.733333-25.6 17.066667-17.066667 25.6-36.266667 25.6-59.733333s-8.533333-42.666667-25.6-59.733334c-17.066667-17.066667-36.266667-25.6-59.733333-25.6s-42.666667 8.533333-59.733333 25.6c-17.066667 17.066667-25.6 36.266667-25.6 59.733334s8.533333 42.666667 25.6 59.733333 36.266667 25.6 59.733333 25.6z m0-228.266667c23.466667 0 42.666667-8.533333 59.733333-25.6 17.066667-17.066667 25.6-36.266667 25.6-59.733333 0-23.466667-8.533333-42.666667-25.6-59.733333-17.066667-17.066667-36.266667-25.6-59.733333-25.6s-42.666667 8.533333-59.733333 25.6c-17.066667 17.066667-25.6 36.266667-25.6 59.733333 0 23.466667 8.533333 42.666667 25.6 59.733333 17.066667 17.066667 36.266667 25.6 59.733333 25.6z m0-228.266666c23.466667 0 42.666667-8.533333 59.733333-25.6 17.066667-17.066667 25.6-36.266667 25.6-59.733334s-8.533333-42.666667-25.6-59.733333c-17.066667-17.066667-36.266667-25.6-59.733333-25.6s-42.666667 8.533333-59.733333 25.6c-17.066667 17.066667-25.6 36.266667-25.6 59.733333s8.533333 42.666667 25.6 59.733334c17.066667 19.2 36.266667 25.6 59.733333 25.6z"  horiz-adv-x="1024" />

    
    <glyph glyph-name="question-sign" unicode="&#59105;" d="M512 712.533333c44.8 0 87.466667-8.533333 128-25.6 40.533333-17.066667 74.666667-40.533333 104.533333-70.4 29.866667-29.866667 53.333333-64 70.4-104.533333 17.066667-40.533333 25.6-83.2 25.6-128s-8.533333-87.466667-25.6-128c-17.066667-40.533333-40.533333-74.666667-70.4-104.533333-29.866667-29.866667-64-53.333333-104.533333-70.4-40.533333-17.066667-83.2-25.6-128-25.6s-87.466667 8.533333-128 25.6c-40.533333 17.066667-74.666667 40.533333-104.533333 70.4-29.866667 29.866667-53.333333 64-70.4 104.533333-17.066667 40.533333-25.6 83.2-25.6 128s8.533333 87.466667 25.6 128c17.066667 40.533333 40.533333 74.666667 70.4 104.533333 29.866667 29.866667 64 53.333333 104.533333 70.4 40.533333 17.066667 83.2 25.6 128 25.6z m-6.4-134.4c-10.666667 0-21.333333 0-34.133333-2.133333-10.666667-2.133333-23.466667-6.4-36.266667-10.666667s-23.466667-12.8-32-21.333333-17.066667-21.333333-23.466667-36.266667c-6.4-14.933333-8.533333-32-8.533333-51.2 0-8.533333 4.266667-14.933333 10.666667-14.933333h74.666666c10.666667-2.133333 17.066667 0 19.2 6.4 2.133333 8.533333 6.4 12.8 10.666667 14.933333 6.4 2.133333 14.933333 4.266667 25.6 4.266667 8.533333 0 12.8-2.133333 17.066667-6.4 4.266667-4.266667 6.4-8.533333 6.4-17.066667s-2.133333-14.933333-4.266667-19.2c-2.133333-4.266667-8.533333-8.533333-14.933333-10.666666 0 0-2.133333 0-8.533334-2.133334-4.266667-2.133333-8.533333-2.133333-10.666666-4.266666-2.133333-2.133333-6.4-4.266667-10.666667-6.4s-8.533333-6.4-12.8-10.666667c-4.266667-4.266667-6.4-8.533333-10.666667-12.8-4.266667-4.266667-6.4-12.8-8.533333-19.2-2.133333-8.533333-4.266667-17.066667-4.266667-25.6 0-2.133333 0-6.4 2.133334-8.533333 2.133333-4.266667 6.4-4.266667 10.666666-4.266667h98.133334c2.133333 0 6.4 2.133333 12.8 4.266667s12.8 8.533333 19.2 14.933333c8.533333 8.533333 14.933333 17.066667 21.333333 27.733333 6.4 10.666667 12.8 25.6 17.066667 42.666667s6.4 36.266667 6.4 57.6c0 17.066667-4.266667 34.133333-10.666667 46.933333-6.4 12.8-14.933333 23.466667-23.466667 32s-21.333333 14.933333-34.133333 19.2c-12.8 4.266667-25.6 8.533333-36.266667 10.666667-6.4 2.133333-17.066667 2.133333-27.733333 2.133333z m49.066667-307.2h-85.333334c-4.266667 0-6.4-2.133333-10.666666-4.266666s-4.266667-6.4-4.266667-10.666667v-85.333333c0-4.266667 2.133333-6.4 4.266667-10.666667s6.4-4.266667 10.666666-4.266667h85.333334c4.266667 0 6.4 2.133333 10.666666 4.266667 2.133333 2.133333 4.266667 6.4 4.266667 10.666667v85.333333c0 4.266667-2.133333 6.4-4.266667 10.666667-4.266667 2.133333-6.4 4.266667-10.666666 4.266666z"  horiz-adv-x="1024" />

    
    <glyph glyph-name="remove-sign" unicode="&#59109;" d="M512 712.533333c44.8 0 87.466667-8.533333 128-25.6 40.533333-17.066667 74.666667-40.533333 104.533333-70.4 29.866667-29.866667 53.333333-64 70.4-104.533333 17.066667-40.533333 25.6-83.2 25.6-128s-8.533333-87.466667-25.6-128c-17.066667-40.533333-40.533333-74.666667-70.4-104.533333-29.866667-29.866667-64-53.333333-104.533333-70.4-40.533333-17.066667-83.2-25.6-128-25.6s-87.466667 8.533333-128 25.6c-40.533333 17.066667-74.666667 40.533333-104.533333 70.4-29.866667 29.866667-53.333333 64-70.4 104.533333-17.066667 40.533333-25.6 83.2-25.6 128s8.533333 87.466667 25.6 128c17.066667 40.533333 40.533333 74.666667 70.4 104.533333 29.866667 29.866667 64 53.333333 104.533333 70.4 40.533333 17.066667 83.2 25.6 128 25.6z m81.066667-149.333333c-4.266667 0-8.533333-2.133333-12.8-4.266667l-68.266667-68.266666-68.266667 68.266666c-4.266667 4.266667-8.533333 4.266667-12.8 4.266667s-8.533333-2.133333-12.8-4.266667l-81.066666-81.066666c-4.266667-4.266667-4.266667-8.533333-4.266667-12.8 0-4.266667 2.133333-8.533333 4.266667-12.8l68.266666-68.266667-68.266666-68.266667c-4.266667-4.266667-4.266667-8.533333-4.266667-12.8 0-4.266667 2.133333-8.533333 4.266667-12.8l81.066666-81.066666c4.266667-4.266667 8.533333-4.266667 12.8-4.266667s8.533333 2.133333 12.8 4.266667l68.266667 68.266666 68.266667-68.266666c4.266667-4.266667 8.533333-4.266667 12.8-4.266667 4.266667 0 8.533333 2.133333 12.8 4.266667l81.066666 81.066666c4.266667 4.266667 4.266667 8.533333 4.266667 12.8 0 4.266667-2.133333 8.533333-4.266667 12.8l-68.266666 68.266667 68.266666 68.266667c4.266667 4.266667 4.266667 8.533333 4.266667 12.8 0 4.266667-2.133333 8.533333-4.266667 12.8l-81.066666 81.066666c-4.266667 2.133333-8.533333 4.266667-12.8 4.266667z"  horiz-adv-x="1024" />

    
    <glyph glyph-name="resize-full" unicode="&#59110;" d="M654.933333 725.333333h170.666667c8.533333 0 14.933333-2.133333 19.2-8.533333s8.533333-12.8 8.533333-19.2v-170.666667c0-8.533333-2.133333-12.8-6.4-14.933333-4.266667-2.133333-8.533333 0-14.933333 6.4l-53.333333 53.333333-140.8-140.8c-2.133333-2.133333-6.4-4.266667-10.666667-4.266666s-6.4 2.133333-10.666667 4.266666l-59.733333 59.733334c-2.133333 2.133333-4.266667 6.4-4.266667 10.666666s2.133333 6.4 4.266667 10.666667l140.8 140.8-53.333333 53.333333c-4.266667 4.266667-6.4 10.666667-6.4 14.933334s8.533333 4.266667 17.066666 4.266666z m-285.866666-682.666666h-170.666667c-8.533333 0-14.933333 2.133333-19.2 8.533333-6.4 6.4-8.533333 12.8-8.533333 19.2v170.666667c0 8.533333 2.133333 12.8 6.4 14.933333 4.266667 2.133333 8.533333 0 14.933333-6.4l53.333333-53.333333 140.8 140.8c2.133333 2.133333 6.4 4.266667 10.666667 4.266666s6.4-2.133333 10.666667-4.266666l59.733333-59.733334c2.133333-2.133333 4.266667-6.4 4.266667-10.666666s-2.133333-6.4-4.266667-10.666667l-140.8-140.8 53.333333-53.333333c4.266667-4.266667 6.4-10.666667 6.4-14.933334s-8.533333-4.266667-17.066666-4.266666z"  horiz-adv-x="1024" />

    
    <glyph glyph-name="resize-horizontal" unicode="&#59111;" d="M704 535.466667l140.8-130.133334c4.266667-6.4 8.533333-12.8 8.533333-19.2s-2.133333-14.933333-8.533333-19.2l-140.8-130.133333c-6.4-6.4-10.666667-8.533333-14.933333-6.4-4.266667 2.133333-6.4 6.4-6.4 14.933333v85.333334h-341.333334v-85.333334c0-8.533333-2.133333-12.8-6.4-14.933333-4.266667-2.133333-8.533333 0-14.933333 6.4l-140.8 130.133333c-4.266667 6.4-8.533333 12.8-8.533333 19.2s2.133333 14.933333 8.533333 19.2l140.8 130.133334c6.4 6.4 10.666667 8.533333 14.933333 6.4 4.266667-2.133333 6.4-6.4 6.4-14.933334v-85.333333h341.333334v85.333333c0 8.533333 2.133333 12.8 6.4 14.933334 4.266667 0 8.533333-2.133333 14.933333-6.4z"  horiz-adv-x="1024" />

    
    <glyph glyph-name="resize-small" unicode="&#59112;" d="M746.666667 680.533333l59.733333-59.733333c2.133333-2.133333 4.266667-6.4 4.266667-10.666667s-2.133333-6.4-4.266667-10.666666l-140.8-140.8 53.333333-53.333334c4.266667-4.266667 6.4-10.666667 6.4-14.933333-2.133333-4.266667-6.4-6.4-14.933333-6.4h-170.666667c-8.533333 0-14.933333 2.133333-19.2 8.533333-6.4 6.4-8.533333 12.8-8.533333 19.2v170.666667c0 8.533333 2.133333 12.8 6.4 14.933333 4.266667 2.133333 8.533333 0 14.933333-6.4l53.333334-53.333333 140.8 140.8c2.133333 2.133333 6.4 4.266667 10.666666 4.266667 2.133333 2.133333 6.4 0 8.533334-2.133334z m-433.066667-296.533333h170.666667c8.533333 0 14.933333-2.133333 19.2-8.533333 6.4-6.4 8.533333-12.8 8.533333-19.2v-170.666667c0-8.533333-2.133333-12.8-6.4-14.933333-4.266667-2.133333-8.533333 0-14.933333 6.4l-53.333334 53.333333-140.8-140.8c-2.133333-2.133333-6.4-4.266667-10.666666-4.266667s-6.4 2.133333-10.666667 4.266667l-59.733333 59.733333c-2.133333 2.133333-4.266667 6.4-4.266667 10.666667s2.133333 6.4 4.266667 10.666667l140.8 140.8-53.333334 53.333333c-4.266667 4.266667-6.4 10.666667-6.4 14.933333 4.266667 2.133333 8.533333 4.266667 17.066667 4.266667z"  horiz-adv-x="1024" />

    
    <glyph glyph-name="resize-vertical" unicode="&#59113;" d="M531.2 716.8l130.133333-140.8c4.266667-4.266667 6.4-10.666667 6.4-14.933333-2.133333-4.266667-6.4-6.4-14.933333-6.4h-85.333333v-341.333334h85.333333c8.533333 0 12.8-2.133333 14.933333-6.4 2.133333-4.266667 0-8.533333-6.4-14.933333l-130.133333-140.8c-4.266667-6.4-12.8-8.533333-19.2-8.533333s-14.933333 2.133333-19.2 8.533333l-130.133333 140.8c-4.266667 4.266667-6.4 10.666667-6.4 14.933333 2.133333 4.266667 6.4 6.4 14.933333 6.4h85.333333v341.333334h-85.333333c-8.533333 0-12.8 2.133333-14.933333 6.4-2.133333 4.266667 0 8.533333 6.4 14.933333l130.133333 140.8c4.266667 6.4 12.8 8.533333 19.2 8.533333s14.933333-2.133333 19.2-8.533333z"  horiz-adv-x="1024" />

    
    <glyph glyph-name="sort" unicode="&#59123;" d="M398.933333 213.333333h85.333334c8.533333 0 12.8-2.133333 14.933333-6.4 2.133333-4.266667 0-8.533333-6.4-14.933333l-130.133333-142.933333c-4.266667-6.4-12.8-8.533333-19.2-8.533334-8.533333 0-14.933333 2.133333-19.2 8.533334l-130.133334 142.933333c-4.266667 4.266667-6.4 10.666667-6.4 14.933333 2.133333 4.266667 6.4 6.4 14.933334 6.4h85.333333v512h113.066667l-2.133334-512z m302.933334 503.466667l130.133333-140.8c4.266667-4.266667 6.4-10.666667 6.4-14.933333-2.133333-4.266667-6.4-6.4-14.933333-6.4h-85.333334v-512h-113.066666v512h-85.333334c-8.533333 0-12.8 2.133333-14.933333 6.4-2.133333 4.266667 0 8.533333 6.4 14.933333l130.133333 140.8c4.266667 6.4 12.8 8.533333 19.2 8.533333 10.666667 0 17.066667-2.133333 21.333334-8.533333z"  horiz-adv-x="1024" />

    
    <glyph glyph-name="signal" unicode="&#59124;" d="M725.333333 725.333333h85.333334c4.266667 0 6.4-2.133333 10.666666-4.266666 2.133333-2.133333 4.266667-6.4 4.266667-10.666667v-654.933333c0-4.266667-2.133333-6.4-4.266667-10.666667-2.133333-2.133333-6.4-4.266667-10.666666-4.266667h-85.333334c-4.266667 0-6.4 2.133333-10.666666 4.266667-2.133333 2.133333-4.266667 6.4-4.266667 10.666667v654.933333c0 4.266667 2.133333 6.4 4.266667 10.666667 4.266667 2.133333 6.4 4.266667 10.666666 4.266666z m-170.666666-228.266666h85.333333c4.266667 0 6.4-2.133333 10.666667-4.266667 2.133333-2.133333 4.266667-6.4 4.266666-10.666667v-426.666666c0-4.266667-2.133333-6.4-4.266666-10.666667-2.133333-2.133333-6.4-4.266667-10.666667-4.266667h-85.333333c-4.266667 0-6.4 2.133333-10.666667 4.266667s-4.266667 6.4-4.266667 10.666667v426.666666c0 4.266667 2.133333 6.4 4.266667 10.666667 4.266667 4.266667 6.4 4.266667 10.666667 4.266667z m-170.666667-170.666667h85.333333c4.266667 0 6.4-2.133333 10.666667-4.266667 2.133333-2.133333 4.266667-6.4 4.266667-10.666666v-256c0-4.266667-2.133333-6.4-4.266667-10.666667-2.133333-2.133333-6.4-4.266667-10.666667-4.266667h-85.333333c-4.266667 0-6.4 2.133333-10.666667 4.266667s-4.266667 6.4-4.266666 10.666667v256c0 4.266667 2.133333 6.4 4.266666 10.666666 4.266667 4.266667 6.4 4.266667 10.666667 4.266667z m-170.666667-113.066667h85.333334c4.266667 0 6.4-2.133333 10.666666-4.266666s4.266667-6.4 4.266667-10.666667v-142.933333c0-4.266667-2.133333-6.4-4.266667-10.666667s-6.4-4.266667-10.666666-4.266667h-85.333334c-4.266667 0-6.4 2.133333-10.666666 4.266667s-4.266667 6.4-4.266667 10.666667v142.933333c0 4.266667 2.133333 6.4 4.266667 10.666667s6.4 4.266667 10.666666 4.266666z"  horiz-adv-x="1024" />

    
    <glyph glyph-name="share-alt1" unicode="&#59125;" d="M539.733333 646.4l296.533334-243.2c6.4-4.266667 8.533333-10.666667 8.533333-19.2 0-6.4-2.133333-12.8-8.533333-19.2l-296.533334-243.2c-6.4-4.266667-10.666667-6.4-14.933333-4.266667-4.266667 2.133333-6.4 6.4-6.4 14.933334v166.4c-36.266667 0-70.4-4.266667-104.533333-10.666667-34.133333-6.4-66.133333-17.066667-96-29.866667-32-12.8-59.733333-29.866667-83.2-53.333333-23.466667-21.333333-42.666667-46.933333-57.6-76.8 2.133333 40.533333 6.4 76.8 14.933333 110.933333 8.533333 34.133333 21.333333 66.133333 38.4 96s38.4 55.466667 64 76.8 57.6 38.4 96 51.2c38.4 12.8 81.066667 21.333333 128 23.466667v149.333333c0 8.533333 2.133333 12.8 6.4 14.933334 4.266667 2.133333 10.666667 0 14.933333-4.266667z"  horiz-adv-x="1024" />

    
    <glyph glyph-name="triangle-bottom" unicode="&#59148;" d="M228.266667 548.266667h569.6c14.933333 0 25.6-4.266667 27.733333-12.8 4.266667-8.533333 0-17.066667-10.666667-27.733334l-281.6-281.6c-4.266667-4.266667-12.8-8.533333-19.2-8.533333-8.533333 0-14.933333 2.133333-19.2 8.533333l-281.6 281.6c-10.666667 10.666667-14.933333 21.333333-10.666666 27.733334 0 8.533333 8.533333 12.8 25.6 12.8z"  horiz-adv-x="1024" />

    
    <glyph glyph-name="triangle-top" unicode="&#59149;" d="M531.2 541.866667l281.6-281.6c10.666667-10.666667 14.933333-21.333333 10.666667-27.733334-4.266667-8.533333-12.8-12.8-27.733334-12.8h-569.6c-14.933333 0-25.6 4.266667-27.733333 12.8-4.266667 8.533333 0 17.066667 10.666667 27.733334l281.6 281.6c4.266667 4.266667 12.8 8.533333 19.2 8.533333s17.066667-4.266667 21.333333-8.533333z"  horiz-adv-x="1024" />

    
    <glyph glyph-name="usd" unicode="&#59150;" d="M530.74999971 691.50000029v-39.375c13.12499971-1.87499971 24.37499971-3.75000029 35.62500058-7.50000058 11.25-3.75000029 24.37499971-7.49999971 37.49999942-14.99999942s26.25000029-16.875 35.62500058-26.25000029c9.37500029-11.25 18.74999971-24.37499971 26.24999942-41.24999971 7.49999971-16.875 11.25-37.50000029 11.25-60.00000029h-78.75c-1.87499971 11.25-3.75000029 22.5-5.625 29.99999971-1.87499971 7.49999971-5.625 15.00000029-11.25 22.5-5.625 7.49999971-11.25 13.12499971-20.62499942 16.875-9.37500029 3.75000029-18.74999971 7.49999971-31.87500029 9.37500029v-153.74999971l31.87500029-5.625c11.25-1.87499971 22.5-5.625 31.87499942-7.50000058 9.37500029-3.75000029 22.5-9.37500029 35.62500058-16.875s24.37499971-16.875 33.75-26.24999942c9.37500029-9.37500029 16.875-22.5 24.37499971-39.375 7.49999971-16.875 9.37500029-35.62499971 9.37500029-56.25 0-46.87499971-15.00000029-84.375-45-112.5-29.99999971-28.125-71.25000029-45-121.87500029-48.75000029v-39.375h-50.625v39.375c-50.625 5.625-90 22.5-118.125 50.625-13.12499971 13.12499971-22.5 28.125-26.25000029 46.87499971-3.75000029 18.74999971-7.49999971 41.24999971-7.49999971 69.37500058h69.37499971c1.87499971-26.25000029 9.37500029-46.87499971 24.37500058-63.75000058 15.00000029-16.875 33.75-26.25000029 58.12499971-31.87499942v166.87499942l-13.12499971 3.75000029c-15.00000029 3.75000029-28.125 9.37500029-39.375 13.12499971-11.25 3.75000029-22.5 9.37500029-35.62500058 18.75000058-13.12499971 7.49999971-24.37499971 16.875-31.87499942 26.24999942s-15.00000029 22.5-20.62500029 35.62500058c-5.625 15.00000029-7.49999971 31.87500029-7.49999971 48.74999942 0 22.5 3.75000029 45 13.12499971 63.75000058s18.74999971 33.75 33.75 46.87499971c15.00000029 11.25 29.99999971 20.62500029 46.87499971 28.125s35.62499971 11.25 54.37500029 13.12499971v39.375l52.49999971 1.87500058z m-50.625-245.62500029v136.87499971c-9.37500029-1.87499971-18.74999971-3.75000029-24.37499971-5.625-7.49999971-1.87499971-13.12499971-5.625-20.62500029-11.25-7.49999971-5.625-13.12499971-11.25-14.99999942-20.62499942-3.75000029-9.37500029-5.625-20.62500029-5.625-31.87500029 0-9.37500029 1.87499971-18.74999971 3.74999942-24.37499971s5.625-13.12499971 7.50000058-16.875c3.75000029-3.75000029 7.49999971-7.49999971 14.99999942-11.25 5.625-3.75000029 11.25-5.625 15.00000029-7.50000058 3.75000029-1.87499971 11.25-3.75000029 18.74999971-5.625 1.87499971-1.87499971 3.75000029-1.87499971 5.625-1.87499971z m50.625-105.00000029v-155.62499942c7.49999971 0 15.00000029 1.87499971 20.62500029 3.74999942 7.49999971 1.87499971 15.00000029 3.75000029 22.5 7.50000058 7.49999971 3.75000029 15.00000029 7.49999971 20.62500029 13.12499971s11.25 13.12499971 14.99999942 20.62500029c3.75000029 9.37500029 5.625 18.74999971 5.625 29.99999971 0 11.25-1.87499971 20.62500029-5.625 29.99999971-3.75000029 9.37500029-11.25 16.875-18.74999971 22.5-9.37500029 5.625-16.875 11.25-26.25000029 15.00000029-11.25 5.625-20.62500029 9.37500029-33.75 13.12499971z"  horiz-adv-x="1024" />

    
    <glyph glyph-name="warning-sign" unicode="&#59151;" d="M119.466667 100.266667l364.8 605.866666c8.533333 12.8 17.066667 17.066667 27.733333 17.066667s19.2-8.533333 27.733333-19.2l364.8-601.6c8.533333-12.8 8.533333-25.6 4.266667-38.4-4.266667-12.8-14.933333-19.2-27.733333-19.2h-736c-14.933333 0-23.466667 6.4-27.733334 19.2-6.4 12.8-6.4 25.6 2.133334 36.266667z m138.666666 57.6h196.266667v42.666666c0 4.266667 2.133333 6.4 4.266667 10.666667 2.133333 2.133333 6.4 4.266667 10.666666 4.266667h85.333334c4.266667 0 6.4-2.133333 10.666666-4.266667s4.266667-6.4 4.266667-10.666667v-42.666666h196.266667l-253.866667 411.733333-253.866667-411.733333z m194.133334 283.733333h117.333333c8.533333 0 12.8-2.133333 19.2-8.533333s6.4-12.8 4.266667-19.2l-32-142.933334c-2.133333-8.533333-6.4-14.933333-12.8-19.2-6.4-6.4-12.8-8.533333-21.333334-8.533333h-29.866666c-8.533333 0-14.933333 2.133333-21.333334 8.533333-6.4 6.4-10.666667 12.8-12.8 19.2l-32 142.933334c-2.133333 8.533333 0 14.933333 4.266667 19.2s10.666667 8.533333 17.066667 8.533333z"  horiz-adv-x="1024" />

    
    <glyph glyph-name="off-btn" unicode="&#58883;" d="M512 426.65c-15.26 0-27.63 12.37-27.63 27.63V744.17c0 15.26 12.37 27.63 27.63 27.63s27.63-12.37 27.63-27.63v-289.89c0-15.26-12.37-27.63-27.63-27.63zM643.26 680.31c0-10.19 5.54-19.67 14.6-24.33 106-54.54 177.82-166.49 173.92-294.54-4.98-163.38-136.02-299.05-299.15-309.34-185.71-11.7-340.56 136.05-340.56 319.29 0 123.92 70.86 231.53 174.16 284.64 9.03 4.64 14.51 14.16 14.51 24.32 0 20.48-21.65 34.21-39.86 24.84-129.5-66.65-215.46-206.41-202.85-364.41C152.64 157.57000000000005 301.58 10.100000000000023 484.9-2.8500000000000227c219.08-15.47 402.3 158.39 402.3 374.23 0 145.17-82.9 271.31-203.82 333.66-18.31 9.44-40.12-4.14-40.12-24.73z"  horiz-adv-x="1024" />

    
    <glyph glyph-name="setting" unicode="&#58908;" d="M825.21875 356.71875v26.90625 27l71.625 97.6875c7.03125 9.5625 7.78125 22.40625 1.78125 32.71875-13.5 23.4375-20.90625 36.375-28.40625 49.3125-7.5 12.9375-14.90625 25.96875-28.40625 49.40625-5.90625 10.3125-17.4375 16.125-29.25 14.8125l-120.46875-13.03125c-17.0625 9.84375-30.75 17.8125-46.6875 27l-48.75 110.8125c-4.78125 10.875-15.5625 17.90625-27.46875 17.90625-54.09375 0-59.8125 0-113.8125 0.09375h-0.09375c-11.90625 0-22.59375-7.03125-27.46875-17.90625l-49.03125-110.71875c-8.25-4.78125-15.84375-9.09375-23.4375-13.5-7.5-4.3125-15.09375-8.71875-23.34375-13.40625l-120.375 13.21875c-11.8125 1.3125-23.25-4.5-29.25-14.71875-18.1875-31.3125-25.40625-43.875-36.375-62.8125-5.4375-9.375-11.71875-20.25-20.71875-35.71875-6-10.3125-5.25-23.15625 1.78125-32.71875L198.5 411.1875v-53.90625l-71.625-97.6875c-7.03125-9.5625-7.78125-22.40625-1.78125-32.71875 13.5-23.4375 20.90625-36.375 28.40625-49.3125 7.5-12.9375 14.90625-25.96875 28.40625-49.40625 5.90625-10.3125 17.4375-16.125 29.25-14.8125l120.46875 13.03125c17.25-9.9375 30.84375-17.8125 46.6875-27l48.75-110.8125c4.78125-10.875 15.5625-17.90625 27.46875-17.90625 54.09375 0 59.8125 0 113.8125-0.09375h0.09375c11.90625 0 22.59375 7.03125 27.46875 17.90625l49.03125 110.71875c8.34375 4.78125 15.84375 9.09375 23.4375 13.5 7.5 4.3125 15 8.625 23.25 13.40625L812 112.875c11.8125-1.3125 23.25 4.5 29.25 14.71875 18.1875 31.21875 25.40625 43.78125 36.375 62.71875 5.4375 9.375 11.71875 20.34375 20.71875 35.8125 6 10.3125 5.25 23.15625-1.78125 32.71875l-71.34375 97.875z m0.5625-136.3125c-8.71875-15.09375-15.09375-26.0625-26.53125-45.75l-110.71875 12.09375c-6.28125 0.65625-12.65625-0.65625-18.1875-3.84375-11.71875-6.75-21.75-12.5625-31.875-18.28125-10.03125-5.8125-20.15625-11.625-31.875-18.375-5.53125-3.1875-9.9375-8.0625-12.46875-13.875L549.03125 30.5625c-31.21875 0.09375-43.59375 0.09375-74.8125 0.09375l-44.8125 101.90625c-2.53125 5.8125-6.9375 10.6875-12.375 13.875-22.3125 12.9375-39 22.59375-63.65625 36.84375-5.53125 3.1875-11.90625 4.5-18.1875 3.84375l-110.71875-12c-7.78125 13.5-13.21875 22.96875-18.65625 32.34375-5.4375 9.46875-10.875 18.9375-18.65625 32.4375l65.90625 89.8125c3.75 5.15625 5.8125 11.34375 5.8125 17.71875v36.65625c0 11.625 0.09375 23.25 0.09375 36.84375 0 6.375-2.0625 12.5625-5.8125 17.71875l-65.71875 89.90625c4.21875 7.21875 7.6875 13.3125 10.875 18.84375 8.71875 15.09375 15.09375 26.15625 26.53125 45.84375l110.71875-12.09375c6.28125-0.65625 12.65625 0.65625 18.1875 3.84375 11.71875 6.75 21.84375 12.5625 31.875 18.28125 10.03125 5.8125 20.15625 11.53125 31.875 18.375 5.53125 3.1875 9.9375 8.0625 12.46875 13.875l45 101.90625c31.21875-0.09375 43.59375-0.09375 74.8125-0.09375l44.8125-101.90625c2.53125-5.8125 6.9375-10.6875 12.375-13.875 22.5-13.03125 39.1875-22.6875 63.65625-36.84375 5.53125-3.1875 11.90625-4.5 18.1875-3.84375l110.71875 12c7.78125-13.5 13.21875-22.96875 18.65625-32.34375 5.4375-9.46875 10.875-18.9375 18.65625-32.4375l-65.90625-89.8125c-3.75-5.15625-5.8125-11.34375-5.8125-17.71875v-36.65625c0-11.625-0.09375-23.25-0.09375-36.84375 0-6.375 2.0625-12.5625 5.8125-17.71875l65.71875-89.90625c-4.03125-7.40625-7.59375-13.5-10.78125-19.03125zM512 561.5625c-97.875 0-177.5625-79.6875-177.5625-177.5625s79.6875-177.5625 177.5625-177.5625 177.5625 79.6875 177.5625 177.5625-79.6875 177.5625-177.5625 177.5625z m0-295.125c-64.78125 0-117.5625 52.78125-117.5625 117.5625 0 64.78125 52.78125 117.5625 117.5625 117.5625 64.78125 0 117.5625-52.78125 117.5625-117.5625 0-64.78125-52.78125-117.5625-117.5625-117.5625z"  horiz-adv-x="1024" />

    
    <glyph glyph-name="cloud" unicode="&#59316;" d="M185.6 49.92a153.728 153.728 0 0 0-153.6 153.6c0 51.648 26.304 99.712 68.544 127.936A115.392 115.392 0 0 0 211.2 478.72c8.832 0 18.688-2.176 28.032-5.056A282.048 282.048 0 0 0 518.4 718.08a279.936 279.936 0 0 0 277.632-233.984A217.92 217.92 0 0 0 992 267.648c0-120-97.6-217.6-217.6-217.6l-588.8-0.064z m25.6 377.6a64.064 64.064 0 0 1-56.704-93.76c3.2-6.144 3.776-14.912 1.6-21.504a27.072 27.072 0 0 0-14.336-16.128c-35.456-16.704-58.56-53.12-58.56-92.544 0-56.448 45.952-102.4 102.4-102.4l588.8 0.064c91.776 0 166.4 74.624 166.4 166.4s-74.624 166.4-166.4 166.4a26.56 26.56 0 0 0-26.496 23.296A228.992 228.992 0 0 1 518.4 666.88a230.656 230.656 0 0 1-230.4-230.4 25.664 25.664 0 0 0-37.376-22.784c-12.864 6.656-31.808 13.76-39.424 13.76z"  horiz-adv-x="1024" />

    
    <glyph glyph-name="calendar" unicode="&#58929;" d="M757.333333 768A138.666667 138.666667 0 0 0 896 629.333333v-490.666666A138.666667 138.666667 0 0 0 757.333333 0H266.666667A138.666667 138.666667 0 0 0 128 138.66666699999996V629.333333A138.666667 138.666667 0 0 0 266.666667 768h490.666666z m74.666667-234.666667h-640v-394.666666c0-41.216 33.450667-74.666667 74.666667-74.666667h490.666666a74.666667 74.666667 0 0 1 74.666667 74.666667V533.333333z m-234.88-72.32c28.458667 0 51.029333-7.594667 67.712-22.698666 16.64-15.146667 25.002667-35.626667 25.002667-61.482667 0-14.848-3.84-28.074667-11.477334-39.68a79.445333 79.445333 0 0 0-31.232-27.392c15.829333-7.381333 28.032-17.450667 36.565334-30.208 8.533333-12.8 12.8-27.221333 12.8-43.349333 0-26.666667-9.002667-47.786667-27.093334-63.445334-18.048-15.616-42.069333-23.424-72.064-23.424-30.122667 0-54.272 7.850667-72.405333 23.552-18.133333 15.701333-27.178667 36.778667-27.178667 63.317334 0 16.256 4.266667 30.848 12.928 43.776 8.618667 12.885333 20.693333 22.826667 36.266667 29.781333a78.976 78.976 0 0 0-30.976 27.392 70.997333 70.997333 0 0 0-11.349333 39.68c0 25.813333 8.362667 46.336 25.002666 61.44 16.64 15.146667 39.168 22.741333 67.498667 22.741333z m-161.066667-3.157333v-304.341333H385.621333v243.541333l-74.368-25.429333v42.666666l118.314667 43.562667h6.485333z m160.853334-168.96c-14.72 0-26.453333-4.565333-35.285334-13.738667-8.832-9.173333-13.226667-21.333333-13.226666-36.437333 0-14.890667 4.309333-26.752 13.013333-35.626667 8.661333-8.917333 20.650667-13.354667 35.925333-13.354666s27.178667 4.309333 35.712 12.928c8.533333 8.618667 12.8 20.608 12.8 36.053333 0 14.976-4.437333 27.093333-13.397333 36.352-8.96 9.216-20.821333 13.866667-35.541333 13.866667z m0.213333 131.456c-12.928 0-23.125333-4.053333-30.634667-12.16-7.466667-8.106667-11.221333-19.2-11.221333-33.237333 0-13.866667 3.754667-24.917333 11.349333-33.109334 7.552-8.192 17.792-12.288 30.72-12.288s23.168 4.096 30.72 12.288c7.594667 8.192 11.349333 19.2 11.349334 33.109334 0 13.226667-3.84 24.064-11.434667 32.597333-7.68 8.533333-17.92 12.8-30.848 12.8zM757.333333 704H266.666667A74.666667 74.666667 0 0 1 192 629.333333V597.333333h640v32a74.666667 74.666667 0 0 1-74.666667 74.666667z"  horiz-adv-x="1024" />

    
    <glyph glyph-name="play-btn" unicode="&#59006;" d="M512 810.666667c235.648 0 426.666667-191.018667 426.666667-426.666667s-191.018667-426.666667-426.666667-426.666667S85.333333 148.35199999999998 85.333333 384 276.352 810.666667 512 810.666667z m0-64a362.666667 362.666667 0 1 1 0-725.333334 362.666667 362.666667 0 0 1 0 725.333334zM386.261333 529.7066669999999a21.333333 21.333333 0 0 0 25.045334 10.922666l3.584-1.408 272.298666-136.106666a21.333333 21.333333 0 0 0 3.242667-36.181334l-3.242667-2.005333-272.298666-136.149333a21.333333 21.333333 0 0 0-30.549334 15.232L384 247.89333299999998V520.1493330000001a21.333333 21.333333 0 0 0 2.261333 9.557334z"  horiz-adv-x="1024" />

    
    <glyph glyph-name="folderopen" unicode="&#59008;" d="M864.981333 480c4.736 0 9.472-0.469333 14.122667-1.365333l6.912-1.706667 6.698667-2.304a74.666667 74.666667 0 0 0 43.733333-90.965333l-2.133333-6.058667-109.824-274.773333a96 96 0 0 0-81.877334-60.074667l-7.466666-0.298667H219.434667c-1.493333 0-2.986667 0-4.437334 0.085334L181.290667 42.66666699999996a96.085333 96.085333 0 0 0-95.744 89.429333L85.333333 138.66666699999996V628.992a96 96 0 0 0 89.258667 95.786667l6.570667 0.213333L350.037333 725.333333c19.712 0 38.869333-5.973333 54.954667-17.152l6.698667-5.12L512.853333 618.666667h201.770667a96 96 0 0 0 95.104-82.730667l0.682667-6.741333 0.213333-6.570667v-42.624h54.314667z m-556.288-64a32 32 0 0 1-28.288-17.066667l-1.792-4.010666L189.312 149.33333300000004a32 32 0 0 1 26.368-42.666666l519.68-0.256a32 32 0 0 1 8.448 1.152l3.84 1.365333a32 32 0 0 1 14.976 13.056l2.304 4.650667 108.714667 274.688a10.666667 10.666667 0 0 1-5.973334 13.866666l-1.92 0.554667-2.005333 0.170667H308.650667z m41.472 245.333333l-168.874666-0.341333a32 32 0 0 1-31.658667-27.648l-0.298667-4.352-0.042666-402.304 69.162666 190.08A96 96 0 0 0 301.226667 479.658667l7.509333 0.298666 437.930667 0.042667 0.042666 42.666667a32 32 0 0 1-27.648 31.658666L714.666667 554.666667h-224.938667l-119.04 99.242666a32 32 0 0 1-16.085333 7.125334l-4.437334 0.298666z"  horiz-adv-x="1024" />

    
    <glyph glyph-name="triangle-left" unicode="&#58926;" d="M649.25 721.5l31.5-23.23125v-629.6625l-30.375-22.10625L343.25 363.01874999999995v46.51875L649.25 721.5z"  horiz-adv-x="1024" />

    
    <glyph glyph-name="triangle-right" unicode="&#58927;" d="M374.75 46.5L343.25 69.73125000000005V699.39375L373.625 721.5 680.75 404.98125v-46.51875L374.75 46.5z"  horiz-adv-x="1024" />

    
    <glyph glyph-name="star" unicode="&#58922;" d="M759.5-21a22.365 22.365 0 0 0-10.755 2.745L512 110.85000000000002l-236.745-129.105a22.455 22.455 0 0 0-32.94 23.49l43.11 258.57-171.81 171.81a22.545 22.545 0 0 0 12.195 38.115l258.705 43.11 107.37 214.74a22.5 22.5 0 0 0 40.23 0l107.37-214.74 258.705-43.11a22.5 22.5 0 0 0 12.195-38.115l-171.81-171.81 43.11-258.57A22.635 22.635 0 0 0 759.5-21zM512 159c3.69 0 7.425-0.9 10.755-2.745l206.955-112.86-37.395 224.415a22.365 22.365 0 0 0 6.3 19.62l149.085 149.085-226.89 37.8a22.5 22.5 0 0 0-16.425 12.15L512 671.235 419.615 486.465a22.635 22.635 0 0 0-16.425-12.15l-226.89-37.8 149.085-149.085a22.59 22.59 0 0 0 6.3-19.62l-37.395-224.415 206.955 112.86A22.365 22.365 0 0 0 512 159z"  horiz-adv-x="1024" />

    
    <glyph glyph-name="chevron-up" unicode="&#59178;" d="M802.368 170.688a48.256 48.256 0 0 0-35.648 15.744l-275.2 284.992-276.864-284.992c-20.416-20.992-52.672-20.992-71.36 0-20.416 20.992-20.416 54.208 0 73.408l310.848 321.728c20.416 20.992 52.672 20.992 71.36 0l312.512-321.728c20.416-20.992 20.416-54.208 0-73.408a48.256 48.256 0 0 0-35.648-15.744z"  horiz-adv-x="1024" />

    
    <glyph glyph-name="Retweet" unicode="&#58938;" d="M181.5250001 348.84999989999994h55.90000019a7.04999971 7.04999971 0 0 1 7.0250001 7.0250001V580.2500001000001h464.59999951v-63.79999981a7.32499981 7.32499981 0 0 1 11.8749999-5.7999999l125.94999991 98.87499932c3.75000029 4.39999981 3.15 9.0500001 0 11.60000068l-125.94999991 98.79999961a7.425 7.425 0 0 1-11.94999961-5.7999999v-63.82500029H237.5A63.15000029 63.15000029 0 0 1 174.5 587.1999996100001v-231.32499961c0-3.8750001 3.17499961-7.0250001 7.0250001-7.0250001z m660.9499998 70.3000002h-55.90000019a7.04999971 7.04999971 0 0 1-7.0250001-7.0250001v-224.3750001H314.9500001v63.79999981a7.32499981 7.32499981 0 0 1-11.87499991 5.7999999l-125.9499999-98.87499932c-3.75000029-4.39999981-3.15-9.0500001 0-11.60000068l125.9499999-98.79999961a7.425 7.425 0 0 1 11.94999962 5.7999999v63.82500029h471.62500048a63.15000029 63.15000029 0 0 1 63.02499961 63.1000002v231.32499961a7.32499981 7.32499981 0 0 1-7.2 7.0250001z"  horiz-adv-x="1024" />

    
    <glyph glyph-name="chevron-down" unicode="&#59166;" d="M491.52 170.66666699999996c-13.610667 0-27.178667 5.248-35.669333 15.744l-312.576 321.706666c-20.352 21.034667-20.352 54.229333 0 73.472 20.394667 20.992 52.693333 20.992 71.338666 0l275.2-283.306666 276.906667 283.306666c20.352 20.992 52.650667 20.992 71.338667 0 20.352-20.992 20.352-54.186667 0-73.429333l-310.869334-321.749333c-10.197333-8.746667-23.765333-15.744-35.669333-15.744z"  horiz-adv-x="1024" />

    
    <glyph glyph-name="filter" unicode="&#59646;" d="M581.44-45.44a32 32 0 0 0-17.28 4.8l-171.2 109.12a32 32 0 0 0-14.72 27.2v299.2L106.24 731.84A32 32 0 0 0 131.2 784h717.12a32 32 0 0 0 28.8-18.24 32 32 0 0 0-3.84-33.92l-259.84-320v-425.28a32 32 0 0 0-16.64-28.16 32 32 0 0 0-15.36-3.84z m-139.2 160l107.2-68.48V424a32 32 0 0 0 7.04 20.16l224 275.84H198.08l236.8-293.76a32 32 0 0 0 7.36-19.84z"  horiz-adv-x="1024" />

    
    <glyph glyph-name="eye-close" unicode="&#59647;" d="M955.52 408a794.24 794.24 0 0 1-134.4 165.44l-45.76-45.76A773.76 773.76 0 0 0 896 384c-28.8-45.12-178.56-264-384-264a311.36 311.36 0 0 0-119.68 24.64L343.68 96A385.92 385.92 0 0 1 512 56c264.32 0 436.48 291.52 443.52 304l4.48 7.36v32zM528.32 280.64l-60.16-60.16a148.48 148.48 0 0 1 41.6-5.76A167.04 167.04 0 0 1 672 384a179.84 179.84 0 0 1-3.52 35.2l-64-64a102.08 102.08 0 0 0-76.16-74.56zM408.96 251.52l45.44 45.44 141.12 141.12 46.4 46.4 84.16 84.16 46.08 46.08 98.56 98.56-45.44 45.44-107.2-107.2a320 320 0 0 1-29.12 16q-15.04 7.68-32 14.4A380.16 380.16 0 0 1 512 712c-264.32 0-436.48-291.52-443.52-304l-4.48-7.36v-32l4.48-7.36a795.2 795.2 0 0 1 118.4-149.76c7.04-7.36 15.04-14.72 23.04-21.76s15.68-14.08 24-21.12l-112.64-113.92 45.44-45.44L288 128l46.4 46.4z m7.04 98.88a105.6 105.6 0 0 0-5.76 35.2 19.52 19.52 0 0 0 0 4.48 102.08 102.08 0 0 0 98.24 102.72h4.16a80.64 80.64 0 0 0 35.84-9.28L416 350.4z m-136.32-137.28L256 234.24c-8.32 7.04-16 14.4-23.36 21.76A775.04 775.04 0 0 0 128 384c28.8 45.12 178.56 264 384 264a310.08 310.08 0 0 0 96-16q16.64-5.76 32-12.48c10.24-4.8 20.16-9.92 30.08-15.04l-74.56-74.56a153.28 153.28 0 0 1-29.44 15.68 135.68 135.68 0 0 1-35.52 9.6 161.92 161.92 0 0 1-21.76 1.6 167.36 167.36 0 0 1-161.6-172.8v-14.08a186.24 186.24 0 0 1 7.04-38.08 174.4 174.4 0 0 1 13.44-32l-88-86.72z"  horiz-adv-x="1024" />

    
    <glyph glyph-name="zoomin" unicode="&#58906;" d="M512 588.8h-51.2v-128h-128v-51.2h128v-128H512v128h128v51.2H512v128zM666.688 616.96a256 256 0 1 0-362.048-362.048 256 256 0 0 0 362.048 362.048z m53.568-379.392a307.2 307.2 0 1 1-36.224-36.224l199.872-199.872 36.224 36.224-199.872 199.872z"  horiz-adv-x="1024" />

    
    <glyph glyph-name="share-alt2" unicode="&#60632;" d="M373.6653266 396.6097199L194.38396113 575.9376147 373.71185671 755.2655103l32.89694397-32.89694399-123.1657862-123.16578621H418.93933842c141.07996343 0 255.91682013-114.7903266 255.91681935-255.91681935a256.98701715 256.98701715 0 0 0-81.28848742-187.09846075l-31.73368598 33.96714177A207.664867 207.664867 0 0 1 628.32582698 343.28596073999995c0 115.44175115-93.94473818 209.38648933-209.38648855 209.38648858H283.44301448l123.1192561-123.11925534-32.89694398-32.94347408zM860.9774817 359.57157659999996V58.287683689999994c0-12.79584109-10.46932432-23.26516539-23.26516539-23.2651654h-651.42463262a23.3116955 23.3116955 0 0 0-23.2651654 23.2651654V359.33892455H116.4921875v-301.05124086c0-38.48058345 31.31491273-69.79549619 69.79549619-69.79549619h651.42463262c38.48058345 0 69.79549619 31.31491273 69.79549619 69.79549619V359.57157659999996h-46.53033079z"  horiz-adv-x="1024" />

    
    <glyph glyph-name="pushpin" unicode="&#59007;" d="M921.6 548.1984l-271.0016 271.0016c-9.6256 9.6256-22.528 14.9504-36.1984 14.9504s-26.5728-5.3248-36.1984-14.9504l-15.0016-15.0016c-14.848-14.848-25.6-40.8064-25.6-61.7984l0-51.2c0-7.2704-5.4272-20.4288-10.5984-25.6l-143.0016-143.0016c-5.1712-5.1712-18.3296-10.5984-25.6-10.5984l-51.2 0c-20.992 0-46.9504-10.752-61.7984-25.6l-15.0016-15.0016c-19.968-19.968-19.968-52.4288 0-72.3968l79.5136-79.5136-253.44-329.472c-7.8336-10.1888-6.912-24.6272 2.2016-33.6896 4.9664-4.9664 11.52-7.4752 18.1248-7.4752 5.4784 0 10.9568 1.7408 15.616 5.3248l329.472 253.44 79.5136-79.5136c9.6256-9.6256 22.528-14.9504 36.1984-14.9504s26.5728 5.3248 36.1984 14.9504l15.0016 15.0016c14.848 14.848 25.6 40.8064 25.6 61.7984l0 51.2c0 7.2704 5.4272 20.4288 10.5984 25.6l143.0016 143.0016c5.1712 5.1712 18.3296 10.5984 25.6 10.5984l51.2 0c20.992 0 46.9504 10.752 61.7984 25.6l15.0016 15.0016c9.6256 9.6256 14.9504 22.528 14.9504 36.1984s-5.3248 26.5728-14.9504 36.1984zM216.7808 114.3808l129.6896 168.6016 38.912-38.912-168.6016-129.6896zM870.4 496.9984c-5.1712-5.1712-18.3296-10.5984-25.6-10.5984l-51.2 0c-20.992 0-46.9504-10.752-61.7984-25.6l-143.0016-143.0016c-14.848-14.848-25.6-40.8064-25.6-61.7984l0-51.2c0-7.2704-5.4272-20.4288-10.5984-25.6l-14.9504-14.9504c0 0-0.0512 0-0.0512 0l0-0.0512-271.0016 271.0016 15.0016 15.0016c5.1712 5.1712 18.3296 10.5984 25.6 10.5984l51.2 0c20.992 0 46.9504 10.752 61.7984 25.6l143.0016 143.0016c14.848 14.848 25.6 40.8064 25.6 61.7984l0 51.2c0 7.2704 5.4272 20.4288 10.5984 25.6l15.0016 15.0016 271.0016-271.0016-15.0016-15.0016z"  horiz-adv-x="1024" />

    
    <glyph glyph-name="trash" unicode="&#59039;" d="M744.03125 721.5l-147.65625 0 0 21.09375c0 34.8890625-28.3921875 63.28125-63.28125 63.28125l-84.375 0c-34.8890625 0-63.28125-28.3921875-63.28125-63.28125l0-21.09375-147.65625 0c-34.8890625 0-63.28125-28.3921875-63.28125-63.28125l0-42.1875c0-27.50625 17.634375-50.9625 42.1875-59.653125l0-530.971875c0-34.8890625 28.3921875-63.28125 63.28125-63.28125l421.875 0c34.8890625 0 63.28125 28.3921875 63.28125 63.28125l0 530.971875c24.553125 8.690625 42.1875 32.146875 42.1875 59.653125l0 42.1875c0 34.8890625-28.3921875 63.28125-63.28125 63.28125zM427.625 742.59375c0 11.64375 9.45 21.09375 21.09375 21.09375l84.375 0c11.64375 0 21.09375-9.45 21.09375-21.09375l0-21.09375-126.5625 0 0 21.09375zM701.84375 4.3125l-421.875 0c-11.64375 0-21.09375 9.45-21.09375 21.09375l0 527.34375 464.0625 0 0-527.34375c0-11.64375-9.45-21.09375-21.09375-21.09375zM765.125 616.03125c0-11.64375-9.45-21.09375-21.09375-21.09375l-506.25 0c-11.64375 0-21.09375 9.45-21.09375 21.09375l0 42.1875c0 11.64375 9.45 21.09375 21.09375 21.09375l506.25 0c11.64375 0 21.09375-9.45 21.09375-21.09375l0-42.1875zM617.46875 510.5625c-11.64375 0-21.09375-9.45-21.09375-21.09375l0-421.875c0-11.64375 9.45-21.09375 21.09375-21.09375s21.09375 9.45 21.09375 21.09375l0 421.875c0 11.64375-9.45 21.09375-21.09375 21.09375zM490.90625 510.5625c-11.64375 0-21.09375-9.45-21.09375-21.09375l0-421.875c0-11.64375 9.45-21.09375 21.09375-21.09375s21.09375 9.45 21.09375 21.09375l0 421.875c0 11.64375-9.45 21.09375-21.09375 21.09375zM364.34375 510.5625c-11.64375 0-21.09375-9.45-21.09375-21.09375l0-421.875c0-11.64375 9.45-21.09375 21.09375-21.09375s21.09375 9.45 21.09375 21.09375l0 421.875c0 11.64375-9.45 21.09375-21.09375 21.09375z"  horiz-adv-x="1024" />

    
    <glyph glyph-name="comment" unicode="&#59994;" d="M907.43692159 384.09913496q0-76.76577061-52.92827605-141.89522862t-143.87227176-102.80625603-198.60813051-37.73328536q-30.89836421 0-63.99971852 3.50219079-87.38531759-77.21766609-203.01411226-106.81682962-21.63450368-6.15707792-50.32987624-9.71575602-7.51276514-0.90379097-13.44389532 3.95408703t-7.73871287 12.82253864l0 0.45189548q-1.2991999 1.75109539-0.22594775 5.3097735t0.90379097 4.40598252 1.97704314 4.18003479l2.65488712 3.95408702t3.10678263 3.7281393 3.50219077 3.95408704q3.10678263 3.50219078 13.66984305 15.25147725t15.25147726 16.77662567 13.66984305 17.4544689 14.34768628 22.48180733 11.91874767 26.04048543 11.46685141 33.55325057q-69.30949279 39.258433-109.24576903 97.10107361t-39.93627622 123.98886422q0 57.39074513 31.35025971 109.64117796t84.27853496 90.26615247 126.19185511 60.21509267 153.58802777 22.31234692q107.66413404 0 198.6081305-37.73328536t143.87227176-102.80625603 52.92827604-141.89522863z"  horiz-adv-x="1024" />

    
    <glyph glyph-name="cc-bell-o" unicode="&#58899;" d="M876.584 119.244c-57.068 42.888-89.818 108.39-89.818 179.74l0 149.716c0 125.423-84.509 231.472-199.621 264.101l0 35.332c0 41.279-33.581 74.858-74.858 74.858-41.281 0-74.858-33.579-74.858-74.858l0-35.333c-115.093-32.678-199.621-138.678-199.621-264.101l0-149.716c0-71.35-32.726-136.803-89.823-179.74-8.6-6.433-12.085-17.642-8.699-27.828 3.413-10.184 12.94-17.057 23.664-17.057l227.057 0c-1.634-8.187-2.536-16.521-2.536-24.952 0-68.766 55.998-124.765 124.764-124.765s124.765 55.998 124.765 124.765c0 8.382-0.828 16.765-2.486 24.952l227.06 0c10.722 0 20.227 6.874 23.638 17.057 3.413 10.186-0.099 21.395-8.677 27.828l0.048 0 0 0.001zM487.333 748.133c0 13.768 11.183 24.952 24.952 24.952 13.766 0 24.953-11.186 24.953-24.952l0-26.098c-8.238 0.756-16.522 1.146-24.953 1.146-8.433 0-16.72-0.389-24.952-1.146l0 26.098zM587.143 49.456c0-41.279-33.581-74.858-74.858-74.858-41.281 0-74.857 33.579-74.857 74.858 0 8.528 1.484 16.96 4.286 24.952l141.14 0c2.824-7.992 4.29-16.424 4.29-24.952zM224.935 124.313c12.72 15.403 23.81 32.262 32.873 49.955 19.859 38.842 29.901 80.803 29.901 124.714l0 149.718c0 123.814 100.76 224.575 224.575 224.575 123.788 0 224.575-100.761 224.575-224.575l0-149.717c0-43.911 10.087-85.873 29.922-124.714 9.066-17.791 20.128-34.554 32.849-49.955l-574.695-0.001z"  horiz-adv-x="1024" />

    
    <glyph glyph-name="backward" unicode="&#58939;" d="M809.90467262 668.42728043l0-568.85456086c0-13.5260582-7.72939682-17.00374603-17.38998412-7.34238624L518.13500595 366.60924338999996c-2.31897353 2.31897353-3.86392593 4.63794709-5.02418518 7.34315873l0-274.37968254c0-13.5260582-7.72862435-17.00374603-17.38998413-7.34238625L221.3411541 366.60924338999996c-9.66135979 9.66135979-9.66135979 25.12015342 0 34.78074074l274.37968254 274.37968254c9.66135979 9.66135979 17.38998413 6.18289948 17.38998413-7.34238624l0-274.37968255c1.16025925 2.70521164 2.70521164 5.02418518 5.02418518 7.34238625l274.37968255 274.37968254C802.17604828 685.43102647 809.90467262 681.9533386200001 809.90467262 668.42728043z"  horiz-adv-x="1024" />

    
    <glyph glyph-name="removecircle" unicode="&#59003;" d="M512-0.211c-212.116 0-384.211 172.095-384.211 384.211S299.884 768.211 512 768.211 896.211 596.116 896.211 384 724.116-0.211 512-0.211zM512 656.149c-150.083 0-272.149-122.067-272.149-272.149 0-150.082 122.067-272.149 272.149-272.149 150.082 0 272.149 122.067 272.149 272.149C784.149 534.083 662.082 656.149 512 656.149zM603.55 219.409c-6.503-6.503-16.509-6.503-23.012 0L512 287.947l-68.538-68.538c-6.503-6.503-16.509-6.503-23.013 0l-73.04 73.041c-6.503 6.503-6.503 16.509 0 23.012L415.947 384l-68.538 68.538c-6.503 6.503-6.503 16.509 0 23.013l73.04 73.04c6.503 6.503 16.509 6.503 23.013 0L512 480.053l68.538 68.538c6.503 6.503 16.509 6.503 23.012 0l73.04-73.04c6.504-6.503 6.504-16.509 0-23.013L608.053 384l68.537-68.538c6.504-6.503 6.504-16.509 0-23.012L603.55 219.409z"  horiz-adv-x="1024" />

    
    <glyph glyph-name="exclama" unicode="&#59013;" d="M896.211 384c0-212.116-172.095-384.211-384.211-384.211S127.789 171.88400000000001 127.789 384 299.884 768.211 512 768.211 896.211 596.116 896.211 384zM584.039 627.133c0 3.502-1.5 7.004-5.002 9.005-3.002 2.501-7.504 4.002-12.007 4.002L456.97 640.14c-4.502 0-9.005-1.501-12.006-4.002-3.502-2.001-5.003-5.503-5.003-9.005l8.505-310.67c0-7.004 7.504-12.507 17.009-12.507l92.551 0c9.005 0 16.509 5.503 17.01 12.507L584.039 627.133zM576.035 239.42100000000005c0 9.005-7.004 16.509-15.508 16.509l-96.053 0c-9.005 0-16.509-7.504-16.509-16.509l0-95.053c0-9.005 7.504-16.509 16.509-16.509l96.053 0c8.504 0 15.508 7.504 15.508 16.509L576.035 239.42100000000005z"  horiz-adv-x="1024" />

    
    <glyph glyph-name="oksign" unicode="&#59020;" d="M512 46.31455077999999c-186.43007812 0-337.68544922 151.25537109-337.68544922 337.68544922S325.56992188 721.68544922 512 721.68544922 849.68544922 570.43007812 849.68544922 384 698.43007812 46.31455077999999 512 46.31455077999999zM730.96806641 475.45634766l-40.01220704 39.5727539c-5.27607422 5.27607422-12.31083984 8.35400391-19.7859375 8.35400391s-14.51074219-3.07792969-19.7868164-8.35400391L471.98779297 336.07324219 372.61689453 435.44414063c-5.27607422 5.27607422-12.31171875 8.35400391-19.7868164 8.3540039-7.47421875 0-14.50986328-3.07705078-19.7859375-8.3540039l-40.01220704-39.571875c-5.27607422-5.27695313-7.91455078-12.75205078-7.91455078-20.22626954 0-7.47509766 2.63759766-14.51074219 7.91455078-19.7868164l159.16992188-159.16992188c5.27607422-5.27607422 12.75117188-8.35400391 19.7859375-8.3540039 7.47421875 0 14.94931641 3.07792969 20.22626953 8.3540039l238.75400391 238.75400391c5.27607422 5.27607422 7.91455078 12.31171875 7.91455078 19.7859375C738.88261719 462.70517578 736.24414063 470.18027344 730.96806641 475.45634766z"  horiz-adv-x="1024" />

    
    <glyph glyph-name="plussign" unicode="&#59144;" d="M512 26.168c-197.553 0-357.832 160.279-357.832 357.832S314.447 741.832 512 741.832c197.553 0 357.832-160.279 357.832-357.832S709.553 26.168 512 26.168zM720.735 413.819c0 16.308-13.512 29.819-29.819 29.819L571.639 443.638 571.639 562.916c0 16.308-13.512 29.819-29.819 29.819l-59.639 0c-16.308 0-29.819-13.512-29.819-29.819l0-119.277L333.084 443.639c-16.308 0-29.819-13.512-29.819-29.819l0-59.639c0-16.308 13.512-29.819 29.819-29.819l119.277 0 0-119.277c0-16.308 13.512-29.819 29.819-29.819l59.639 0c16.308 0 29.819 13.512 29.819 29.819L571.638 324.361l119.277 0c16.308 0 29.819 13.512 29.819 29.819L720.734 413.819z"  horiz-adv-x="1024" />

    
    <glyph glyph-name="heart" unicode="&#59164;" d="M699.86621094 730.06933594c-83.13079834 0-154.69299317-67.63183594-187.8414917-138.27941895-33.17321778 70.64758301-104.7354126 138.27941895-187.89093018 138.27941895-114.62310791 0-207.64160156-93.04321289-207.64160156-207.66632081 0-233.17657471 235.22827148-294.30725098 395.53253174-524.83886718 151.52893067 229.09790039 395.48309326 299.1027832 395.48309326 524.83886718 0 114.62310791-93.01849365 207.6663208-207.64160156 207.66632081z"  horiz-adv-x="1024" />

    
    <glyph glyph-name="phone" unicode="&#58882;" d="M599.765333 844.437333 367.893333 844.437333c-82.048 0-148.778667-64.170667-148.778667-143.04l0-609.92c0-78.869333 66.752-143.04 148.778667-143.04l231.872 0c82.048 0 148.778667 64.170667 148.778667 143.04L748.544 701.418667C748.565333 780.288 681.813333 844.437333 599.765333 844.437333zM707.84 91.477333c0-56.426667-48.490667-102.314667-108.053333-102.314667L367.893333-10.837333c-59.584 0-108.053333 45.888-108.053333 102.314667L259.84 129.066667l448 0L707.84 91.477333zM707.84 163.2l-448 0L259.84 648.170667l448 0L707.84 163.2zM707.84 682.304l-448 0L259.84 701.418667c0 56.405333 48.469333 102.314667 108.053333 102.314667l231.872 0c59.584 0 108.053333-45.888 108.053333-102.314667L707.818667 682.304zM586.56 762.773333 586.56 762.88 382.506667 762.88l0-0.192c-0.32 0.021333-0.576 0.192-0.896 0.192-11.776 0-21.333333-9.557333-21.333333-21.333333 0-11.776 9.557333-21.333333 21.333333-21.333333 0.32 0 0.576 0.170667 0.896 0.192L382.506667 720.213333l204.032 0L586.538667 720.298667c11.541333 0.277333 20.842667 9.621333 20.842667 21.226667C607.381333 753.152 598.101333 762.496 586.56 762.773333zM483.84 8c23.530667 0 42.666667 19.136 42.666667 42.666667s-19.136 42.666667-42.666667 42.666667-42.666667-19.136-42.666667-42.666667S460.309333 8 483.84 8zM483.84 78.485333c15.338667 0 27.818667-12.48 27.818667-27.818667s-12.48-27.818667-27.818667-27.818667-27.818667 12.48-27.818667 27.818667S468.501333 78.485333 483.84 78.485333z"  horiz-adv-x="1024" />

    
    <glyph glyph-name="stop" unicode="&#60727;" d="M256 640l512 0 0-512-512 0 0 512z"  horiz-adv-x="1024" />

    
    <glyph glyph-name="pencil" unicode="&#58921;" d="M114.184192-40.365056c-7.08096 0.013312-13.877248 2.832384-18.895872 7.836672-7.126016 7.126016-9.732096 17.601536-6.784 27.2384 0.575488 1.888256 58.07616 190.170112 69.574656 232.603648 1.241088 4.566016 3.653632 8.7296 6.990848 12.080128 0 0 509.130752 509.3376 524.081152 524.120064 27.316224 27.3152 63.917056 43.313152 102.509568 44.839936 35.837952-0.81408 69.891072-15.791104 94.697472-41.658368 32.720896-31.427584 49.664-65.067008 50.335744-100.026368 0.51712-35.385344-15.63648-70.36928-48.21504-103.969792C856.962048 530.147328 382.084096 60.553216 361.869312 40.584192c-3.130368-3.091456-6.971392-5.366784-11.1872-6.622208-31.983616-9.532416-226.31936-72.361984-228.28544-72.994816C119.745536-39.899136 116.977664-40.351744 114.184192-40.365056zM207.98976 205.974528c-10.010624-35.617792-39.821312-125.582336-56.680448-181.064704 55.845888 17.989632 146.818048 49.508352 177.650688 59.014144 50.762752 50.20672 491.568128 486.20032 521.107456 516.632576 22.116352 22.852608 33.23904 44.762112 32.850944 65.119232-0.401408 19.8656-11.666432 40.687616-33.652736 61.743104-14.938112 16.128-35.631104 25.737216-57.604096 26.732544-24.418304-1.732608-47.439872-12.105728-64.900096-29.28128-14.097408-13.903872-465.927168-465.946624-518.837248-518.883328L207.98976 205.974528zM350.358528 42.2912c-13.57312 0.064512-24.98048 10.20416-26.62912 23.681024-6.265856 30.871552-21.462016 59.220992-43.701248 81.517568-22.464512 24.482816-52.036608 41.295872-84.563968 48.086016-14.711808 1.900544-25.174016 15.273984-23.48032 30.005248 1.532928 14.70464 14.698496 25.388032 29.396992 23.84896 0.013312 0 0.032768 0 0.045056 0 88.92928-17.84832 158.303232-87.597056 175.660032-176.616448 1.913856-14.795776-8.497152-28.337152-23.279616-30.28992-1.164288-0.154624-2.33472-0.22016-3.511296-0.22016L350.358528 42.2912zM828.883968 526.862336c-13.580288 0.052224-24.987648 10.20416-26.616832 23.681024-14.304256 64.290816-64.200704 114.678784-128.336896 129.603584-14.70464 1.94048-25.12896 15.300608-23.447552 30.031872 1.513472 14.665728 14.62784 25.34912 29.30688 23.84896 0.0256-0.012288 0.064512-0.012288 0.103424-0.012288 44.724224-8.070144 85.644288-30.367744 116.683776-63.566848 30.716928-30.78144 51.318784-70.189056 59.053056-112.985088 2.018304-14.731264-8.276992-28.310528-23.020544-30.328832-1.2544-0.181248-2.522112-0.258048-3.802112-0.258048L828.883968 526.862336z"  horiz-adv-x="1024" />

    
    <glyph glyph-name="time" unicode="&#59121;" d="M690.43953 563.078585 503.821225 376.421394 381.0736 499.174136c-8.740058 8.739035-22.946618 8.739035-31.686676 0-8.740058-8.741082-8.740058-22.948665 0-31.6877l122.753765-122.749672-35.180244-35.17922c-8.741082-8.741082-8.741082-22.949688 0-31.6877 8.739035-8.734942 22.942525-8.734942 31.68156 0l35.17922 35.17922 35.722596-35.716456c8.734942-8.738012 22.942525-8.738012 31.682583 0 8.740058 8.740058 8.740058 22.948665 0 31.68463l-35.716456 35.719526 186.612165 186.612165c8.740058 8.740058 8.740058 22.947641 0 31.6877C713.382055 571.819666 699.174472 571.819666 690.43953 563.078585L690.43953 563.078585zM510.544347 833.634604c-247.517303 0-448.158996-200.64067-448.158996-448.158996 0-247.517303 200.64067-448.16002 448.158996-448.16002 247.51935 0 448.161043 200.641693 448.161043 448.16002C958.70539 632.993934 758.063697 833.634604 510.544347 833.634604L510.544347 833.634604zM532.951683-16.39004 532.951683 94.173079c0 12.367679-10.037611 22.406313-22.407336 22.406313-12.368702 0-22.406313-10.038634-22.406313-22.406313l0-110.563118C284.718065-5.050784 119.031489 158.662859 108.453572 363.069295l110.789269 0c12.368702 0 22.406313 10.037611 22.406313 22.406313s-10.037611 22.406313-22.406313 22.406313L108.680746 407.88192c12.326746 202.973808 177.245843 368.076076 379.458311 379.595434l0-110.699218c0-12.368702 10.037611-22.406313 22.406313-22.406313 12.370749 0 22.407336 10.038634 22.407336 22.406313L532.952706 787.430282c202.258517-11.519358 367.177614-176.621627 379.505383-379.548362L801.847899 407.88192c-12.369725 0-22.406313-10.038634-22.406313-22.406313s10.037611-22.406313 22.406313-22.406313l110.789269 0C902.058229 158.662859 736.372675-5.050784 532.951683-16.39004L532.951683-16.39004zM532.951683-16.39004"  horiz-adv-x="1024" />

    
    <glyph glyph-name="play" unicode="&#59897;" d="M341.333333 676.693333 341.333333 79.36 810.666667 378.026667 341.333333 676.693333Z"  horiz-adv-x="1024" />

    
    <glyph glyph-name="eyeopen" unicode="&#59163;" d="M512 383.402667m-85.333333 0a2 2 0 1 0 170.666667 0 2 2 0 1 0-170.666667 0ZM512 596.736c-261.333333 0-384-213.333333-384-213.333333s125.354667-213.333333 384-213.333333c261.333333 0 384 213.333333 384 213.333333S770.688 596.736 512 596.736zM512 212.736c-94.08 0-170.666667 76.544-170.666667 170.666667 0 94.08 76.586667 170.666667 170.666667 170.666667 94.122667 0 170.666667-76.586667 170.666667-170.666667C682.666667 289.28 606.122667 212.736 512 212.736z"  horiz-adv-x="1024" />

    
    <glyph glyph-name="home" unicode="&#59061;" d="M426.666667 42.666667 426.666667 298.666667 597.333333 298.666667 597.333333 42.666667 810.666667 42.666667 810.666667 384 938.666667 384 512 768 85.333333 384 213.333333 384 213.333333 42.666667Z"  horiz-adv-x="1024" />

    
    <glyph glyph-name="cloudup" unicode="&#59162;" d="M782.605138 169.88955099999998L655.120628 169.88955099999998c-10.623965 0-15.935947 5.278213-15.935947 15.935947 0 10.623965 5.311982 15.935947 15.935947 15.935947l127.48451 0c39.84345 0 73.702606 13.94664 101.5877 41.831734 27.885094 27.89328 41.831734 61.753459 41.831734 101.5877 0 34.531468-10.955516 65.034179-32.865525 91.635023-21.910009 26.558889-50.134841 43.11496-84.658122 49.795103-10.623965 2.660596-14.609743 8.634658-11.949146 17.924231 1.326205 6.646374 1.988284 17.22736 1.988284 31.870872 0 57.0616-20.253276 105.863073-60.750619 146.411581-40.505529 40.505529-89.307002 60.750619-146.411581 60.750619-45.146223 0-86.314855-13.938454-123.497709-41.823548-37.182854-27.89328-62.416562-63.078641-75.691913-105.573477 0-5.311982-3.322675-9.29776-9.960863-11.958356-7.971555 0-13.283538 1.291412-15.935947 3.985778-18.59552 18.59552-41.831734 27.885094-69.716828 27.885094-29.219485 0-53.79009-9.952676-73.702606-29.873378-19.921725-19.921725-29.882588-44.526099-29.882588-73.702606 0-7.971555 0.663102-13.94664 1.988284-17.924231 0-7.971555-3.314489-13.94664-9.952676-17.932418-58.429761-23.899316-87.649246-67.727521-87.649246-131.470287 0-39.83424 13.94664-73.694419 41.831734-101.5877 27.885094-27.885094 61.753459-41.831734 101.5877-41.831734l223.097124 0c10.623965 0 15.935947-5.311982 15.935947-15.935947 0-10.657734-5.311982-15.935947-15.935947-15.935947L240.798275 169.88955099999998c-49.132001 0-90.632183 16.938788-124.492362 50.797943-33.868365 33.860179-50.797943 75.360362-50.797943 124.492362 0 71.714322 31.870872 124.168997 95.612615 157.366074l0 9.960863c0 37.139875 13.283538 69.01177 39.84345 95.612615 26.558889 26.558889 58.429761 39.83424 95.612615 39.83424 26.558889 0 51.121308-7.300266 73.694419-21.910009 18.59552 45.112454 47.806819 81.343633 87.649246 108.565625 39.83424 27.180036 84.326571 40.828894 133.458571 40.828894 66.402339 0 122.835629-23.236214 169.316244-69.716828 46.480614-46.514383 69.716828-102.913904 69.716828-169.316244 0-9.289574-0.663102-16.641005-1.988284-21.910009 38.509059-10.665921 69.716828-31.582299 93.616144-62.748113 23.907503-31.199583 35.856649-66.724681 35.856649-106.568131 0-49.132001-16.929578-90.632183-50.797943-124.492362C873.237321 186.82833800000003 831.737138 169.88955099999998 782.605138 169.88955099999998zM698.94167 357.13821199999995L571.45716 484.621698l-1.988284 0c-1.326205 1.283226-2.660596 1.988284-3.985778 1.988284-3.985778 1.283226-7.963369 1.283226-11.949146 0-1.326205 0-3.322675-0.705058-5.975085-1.988284L420.074358 357.13821199999995c-7.971555-7.971555-7.971555-15.935947 0-23.907503 7.963369-7.963369 15.935947-7.963369 23.899316 0l99.599416 101.5877 0-440.219163c0-10.657734 5.311982-15.935947 15.935947-15.935947s15.935947 5.278213 15.935947 15.935947L575.444984 434.818409l99.599416-101.5877c5.311982-2.694365 9.29776-3.985778 11.949146-3.985778 2.660596 0 6.638187 1.291412 11.949146 3.985778C706.913225 341.202265 706.913225 349.16563399999995 698.94167 357.13821199999995z"  horiz-adv-x="1024" />

    
    <glyph glyph-name="clouddown" unicode="&#59165;" d="M781.486664 173.250088L653.756561 173.250088c-10.644431 0-15.966647 5.288446-15.966647 15.966647 0 10.644431 5.322216 15.966647 15.966647 15.966647l127.730103 0c39.910988 0 73.844845 13.973246 101.784174 41.912575 27.939329 27.947516 41.912575 61.872163 41.912575 101.784174 0 34.597983-10.975982 65.159022-32.92897 91.812055-21.952988 26.610054-50.232055 43.198871-84.821851 49.891294-10.644431 2.665713-14.638395 8.652054-11.972683 17.959024 1.328251 6.658653 1.992377 17.260106 1.992377 31.93227 0 57.172117-20.292162 106.067734-60.876486 146.694013-40.576137 40.584324-89.470731 60.867276-146.685827 60.867276-45.242414 0-86.481653-13.96506-123.736139-41.904389-37.254485-27.947516-62.536288-63.201437-75.846432-105.778138 0-5.322216-3.320629-9.31618-9.971096-11.980869-7.986905 0-13.30912 1.294482-15.966647 3.993964-18.631336 18.631336-41.912575 27.939329-69.860091 27.939329-29.267581 0-53.885258-9.971096-73.836659-29.931706-19.959587-19.959587-29.939893-44.612057-29.939893-73.844845 0-7.986905 0.664126-13.973246 1.992377-17.959024 0-7.986905-3.320629-13.973246-9.980305-17.96721-58.543348-23.945365-87.809905-67.858504-87.809905-131.724067 0-39.910988 13.973246-73.836659 41.912575-101.784174 27.939329-27.939329 61.863976-41.912575 101.784174-41.912575l223.527936 0c10.644431 0 15.966647-5.322216 15.966647-15.966647 0-10.6782-5.322216-15.966647-15.966647-15.966647L238.632959 173.24906499999997c-49.227168 0-90.808192 16.971533-124.741026 50.89618-33.92567 33.92567-50.887994 75.505671-50.887994 124.732839 0 71.852468 31.93227 124.409474 95.797833 157.669996l0 9.980305c0 37.21253 13.300934 69.1448 39.910988 95.797833 26.610054 26.610054 58.543348 39.910988 95.797833 39.910988 26.610054 0 51.228755-7.314593 73.844845-21.952988 18.631336 45.199435 47.898917 81.500199 87.819115 108.775402 39.910988 27.232225 84.489276 40.907689 133.716444 40.907689 66.522066 0 123.072013-23.281239 169.642678-69.851904 46.570665-46.604434 69.851904-103.112426 69.851904-169.642678 0-9.30697-0.664126-16.672728-1.992377-21.952988 38.582737-10.686387 69.851904-31.642674 93.796246-62.868863 23.953551-31.259958 35.926234-66.853617 35.926234-106.773815 0-49.227168-16.962324-90.808192-50.89618-124.732839C872.294856 190.22162200000002 830.713832 173.250088 781.486664 173.250088zM673.717172 137.332041L573.925375 35.547867 573.925375 476.609211c0 10.644431-5.322216 15.966647-15.966647 15.966647-10.644431 0-15.966647-5.322216-15.966647-15.966647l0-441.061344-99.791797 101.784174c-7.978718 7.978718-15.966647 7.978718-23.945365 0-7.986905-7.986905-7.986905-15.966647 0-23.953551l127.730103-127.730103 1.992377 0c1.328251-1.328251 2.665713-1.992377 3.993964-1.992377 1.328251-1.328251 3.320629-2.001587 5.986341-2.001587 2.656503 0 4.65809 0.672312 5.986341 2.001587 1.328251 0 3.329838 0.664126 5.986341 1.992377l127.730103 127.730103c7.986905 7.986905 7.986905 15.966647 0 23.953551C689.682795 145.31075899999996 681.69589 145.31075899999996 673.717172 137.332041z"  horiz-adv-x="1024" />

    
    <glyph glyph-name="search" unicode="&#58928;" d="M212.194304 169.027584c33.760256-33.760256 73.08288-60.269568 116.876288-78.792704 45.357056-19.18464 93.518848-28.911616 143.147008-28.911616s97.788928 9.728 143.145984 28.911616c25.648128 10.848256 49.750016 24.457216 72.112128 40.63744l156.345344-156.484608c6.677504-6.683648 15.43168-10.025984 24.18688-10.025984 8.74496 0 17.490944 3.334144 24.1664 10.00448 13.35808 13.345792 13.36832 34.994176 0.021504 48.35328L739.03616 176.014336c30.533632 32.160768 54.736896 69.082112 71.99744 109.889536 19.183616 45.357056 28.911616 93.518848 28.911616 143.147008s-9.728 97.789952-28.911616 143.147008c-18.523136 43.792384-45.033472 83.115008-78.792704 116.876288-33.76128 33.760256-73.083904 60.270592-116.876288 78.793728-45.35808 19.18464-93.518848 28.911616-143.147008 28.911616s-97.789952-9.728-143.147008-28.911616c-43.793408-18.523136-83.116032-45.033472-116.876288-78.793728s-60.269568-73.083904-78.792704-116.876288c-19.183616-45.357056-28.911616-93.518848-28.911616-143.147008s9.728-97.789952 28.911616-143.147008C151.923712 242.111488 178.434048 202.78784 212.194304 169.027584zM260.547584 640.720896c56.539136 56.539136 131.710976 87.676928 211.670016 87.676928 79.958016 0 155.13088-31.137792 211.670016-87.676928s87.675904-131.710976 87.675904-211.670016S740.425728 273.92 683.887616 217.380864c-56.539136-56.539136-131.712-87.676928-211.670016-87.676928-79.95904 0-155.13088 31.136768-211.670016 87.675904s-87.675904 131.712-87.675904 211.670016S204.008448 584.18176 260.547584 640.720896z"  horiz-adv-x="1024" />

    
    <glyph glyph-name="gbp" unicode="&#59141;" d="M751.1880578 270.526925l0-172.7992469q0-6.59179688-4.23758359-10.82938046t-10.82938046-4.23758358l-450.1255578 0q-6.59179688 0-10.82938046 4.23758358t-4.23758359 10.82938046l0 70.62639533q0 6.12095389 4.47300467 10.59395938t10.59395938 4.47300467l45.67173514 0 0 180.33272891-44.73004999 0q-6.59179688 0-10.82938046 4.47300468t-4.23758359 10.59395937l0 61.68038516q0 6.59179688 4.23758359 10.82938046t10.82938046 4.23758359l44.73004999 0 0 104.99790701q0 80.51409064 58.14906564 132.77762266t148.08000861 52.26353201q87.10588751 0 157.73228201-58.85532888 4.23758359-3.76674142 4.70842657-9.65227424t-3.29589843-10.59395938l-48.49679142-59.79701487q-4.23758359-5.17926874-10.3585383-5.65011171-6.12095389-0.94168515-10.82938046 3.29589843-2.35421329 2.35421329-12.2419086 8.94601016t-32.48814139 15.06696406-43.78836483 8.47516716q-40.02162424 0-64.50544062-22.1296039t-24.4838172-57.91364375l0-101.23116641 143.60700312 0q6.12095389 0 10.59395938-4.23758359t4.47300467-10.82938045l0-61.68038517q0-6.12095389-4.47300467-10.59395938t-10.59395938-4.47300466l-143.60700312 0 0-178.44935862 194.9288508 0 0 85.22251638q0 6.12095389 4.23758359 10.59395939t10.82938046 4.47300467l76.27650705 0q6.59179688 0 10.82938046-4.47300467t4.23758359-10.59395939z"  horiz-adv-x="1024" />

    
    <glyph glyph-name="gift" unicode="&#58905;" d="M194.99418653 345.04909863L194.99418653 57.12821426000005C194.99418653 25.38025459000005 220.76123398-0.4495933599999944 252.39696347-0.4495933599999944L751.62734932-0.4495933599999944C783.35095273-0.4495933599999944 809.03012714 25.197074710000038 809.03012714 56.95746211000005L809.03012714 335.59883847000003 770.65803477 335.59883847000003 770.65803477 56.95746211000005C770.65803477 46.400285449999956 762.16950459 37.922501659999966 751.62734932 37.922501659999966L252.39696347 37.922501659999966C241.97449326 37.922501659999966 233.36627891 46.551695509999945 233.36627891 57.12821426000005L233.36627891 345.04909863 194.99418653 345.04909863 194.99418653 345.04909863ZM540.34302324 19.029069729999947L540.34302324 565.83139541 501.97093086 565.83139541 501.97093086 19.029069729999947 540.34302324 19.029069729999947 540.34302324 19.029069729999947ZM137.43604619 546.64534834L789.86055518 546.64534834C821.5870458 546.64534834 847.3197667 520.8645952100001 847.3197667 489.04174834L847.3197667 354.78488467 866.50581289 373.97093085999995 214.08130567 373.97093085999995C182.35481504 373.97093085999995 156.62209326 399.75168398 156.62209326 431.57453086L156.62209326 565.83139541 137.43604619 546.64534834 137.43604619 546.64534834ZM137.43604619 585.01744161L118.25 585.01744161 118.25 565.83139541 118.25 431.57453086C118.25 378.57536426 161.1464583 335.59883847000003 214.08130567 335.59883847000003L866.50581289 335.59883847000003 885.69186084 335.59883847000003 885.69186084 354.78488467 885.69186084 489.04174834C885.69186084 542.04091494 842.79540342 585.01744161 789.86055518 585.01744161L137.43604619 585.01744161 137.43604619 585.01744161ZM463.59883847 604.20348779L578.71511562 604.20348779 559.52906943 623.38953575 559.52906943 565.83139541 578.71511562 585.01744161 463.59883847 585.01744161 482.78488467 565.83139541 482.78488467 623.38953575 463.59883847 604.20348779 463.59883847 604.20348779ZM463.59883847 642.57558106L444.41278965 642.57558106 444.41278965 623.38953575 444.41278965 565.83139541 444.41278965 546.64534834 463.59883847 546.64534834 578.71511562 546.64534834 597.90116182 546.64534834 597.90116182 565.83139541 597.90116182 623.38953575 597.90116182 642.57558106 578.71511562 642.57558106 463.59883847 642.57558106 463.59883847 642.57558106ZM546.85803096 612.96669023C547.64278613 614.1794920899999 549.16624443 616.50573193 551.34353955 619.78545146 554.99132393 625.2802177799999 559.12415205 631.4101177800001 563.65672432 638.01472208 576.59936768 656.87400411 590.12929092 675.72717422 603.54872597 693.2756669 610.71001455 702.64042881 617.65457188 711.38542734 624.31603613 719.39264121 648.95402041 749.00799463 669.68830479 767.28488349 674.64534834 767.28488349 704.54956221 767.28488349 757.09202188 734.10017315 784.00581347 698.21511651 788.4753875 692.25568388 785.97822325 675.55450342 774.83565107 652.06717441 770.29392324 642.49370391 774.37295527 631.0510749 783.94642666 626.50934619 793.51989717 621.96761836 804.96252529 626.04665039 809.50425489 635.62012089 826.30265029 671.02931748 830.6340084 699.99767901 814.70348721 721.2383724700001 781.18123467 765.93471036 718.28764648 805.65697675 674.64534834 805.65697675 652.65902598 805.65697675 628.31498398 784.19815547 594.81746914 743.93346592 587.79999336 735.49831699 580.53266386 726.34686651 573.06755411 716.5847985400001 559.20682813 698.45923536 545.30669903 679.0902035199999 532.0184205 659.7272835900001 527.37017011 652.95411739 523.12783994 646.66180166 519.37475732 641.00842441 517.11153154 637.59926045 515.50601592 635.1477246100001 514.64196846 633.81237949 508.88558955 624.91615898 511.43093545 613.03787988 520.32715596 607.28150273 529.22337646 601.52512471 541.10165381 604.07046972 546.85803096 612.96669023L546.85803096 612.96669023ZM534.84185761 633.81237949C533.97781104 635.1477246100001 532.37229541 637.59926045 530.10906875 641.00842441 526.35598614 646.66180166 522.11365596 652.95411739 517.46540381 659.7272835900001 504.17712529 679.0902035199999 490.27699619 698.45923536 476.41627285 716.5847985400001 468.95116045 726.34686651 461.68383271 735.49831699 454.66635693 743.93346592 421.16884209 784.19815547 396.82480098 805.65697675 374.83847773 805.65697675 331.19617959 805.65697675 268.30259141 765.93471036 234.78033711 721.2383724700001 218.98380254 700.17632549 223.12642344 671.49663808 239.5682501 636.49145977 245.05024414 624.82011738 251.8729042 612.64252852 259.73845333 600.15752989 266.96219961 588.69126709 274.6722667 577.57898027 282.38379541 567.21533614 287.03054287 560.97050244 290.67877812 556.32127646 292.838133 553.68206602L322.53649473 577.98072568C320.73138653 580.18696846 317.44181006 584.37912714 313.16851425 590.1220763599999 306.0133042 599.73807188 298.85663252 610.05276709 292.20475537 620.61130166 285.12335146 631.8516248999999 279.0501251 642.69156856 274.2999541 652.80483604 263.43571308 675.93515596 261.06702031 692.33379492 265.47801172 698.21511651 292.3918042 734.10017315 344.93426211 767.28488349 374.83847773 767.28488349 379.79552041 767.28488349 400.52980654 749.00799463 425.16778994 719.39264121 431.82925244 711.38542734 438.77381153 702.64042881 445.93509834 693.2756669 459.35453604 675.72717422 472.88445664 656.87400411 485.82710176 638.01472208 490.35967227 631.4101177800001 494.49250039 625.2802177799999 498.14028653 619.78545146 500.31757989 616.50573193 501.84103994 614.1794920899999 502.62579336 612.96669023L534.84185761 633.81237949 534.84185761 633.81237949Z"  horiz-adv-x="1024" />

    
    <glyph glyph-name="pause" unicode="&#59446;" d="M597.333333 85.333333h170.666667V682.666667h-170.666667M256 85.333333h170.666667V682.666667H256v-597.333334z"  horiz-adv-x="1024" />

    
    <glyph glyph-name="ok" unicode="&#58984;" d="M377.396966 121.326345l-222.878897 223.196689a19.067586 19.067586 0 1 0 27.047724 27.012414l195.831173-196.113655L842.434207 641.05931a19.067586 19.067586 0 1 0 27.047724-27.012413L377.396966 121.326345z"  horiz-adv-x="1024" />

    
    <glyph glyph-name="star-empty" unicode="&#58992;" d="M873.577931 468.250483c-4.272552 13.135448-16.666483 22.104276-34.074483 24.61131l-202.82262 29.484138-90.712276 183.790345c-7.803586 15.748414-20.162207 24.823172-33.968552 24.823172s-26.164966-9.074759-33.933241-24.823172l-90.747587-183.790345-202.78731-29.484138c-17.44331-2.507034-29.837241-11.475862-34.109793-24.61131s0.494345-27.718621 13.100138-40.006621l146.749793-143.042207-34.639448-202.010483c-3.072-17.972966 2.295172-28.883862 7.379862-34.921931 10.522483-12.499862 29.025103-14.795034 47.563034-5.049379l181.424552 95.408552 181.424552-95.408552c7.803586-4.06069 15.465931-6.214621 22.704551-6.214621a31.920552 31.920552 0 0 1 24.893794 11.22869c5.049379 6.038069 10.451862 16.948966 7.379862 34.921931l-34.674759 202.010483 146.820414 143.042207c12.535172 12.32331 17.337379 26.906483 13.029517 40.041931z m-200.774621-169.736828l37.923311-221.360552-198.726621 104.518621-198.726621-104.518621 37.958621 221.360552-160.768 156.707311 222.208 32.344275L512 688.904828l99.36331-201.339587 222.208-32.344275-160.768-156.707311z"  horiz-adv-x="1024" />

    
    <glyph glyph-name="rmb" unicode="&#59400;" d="M483.875 389.625H326.375v-56.25H483.875V243.375H326.375v-56.25H483.875v-123.75h56.25V187.125h157.5v56.25H540.125v90h157.5v56.25H540.125V440.25l222.1875 222.1875-39.375 39.375-210.9375-210.9375-210.9375 208.125-39.375-39.375 222.1875-222.1875v-47.8125z m28.125 87.1875z"  horiz-adv-x="1024" />

    
    <glyph glyph-name="plane" unicode="&#59276;" d="M670.203125-4.476562769999987h-5.2734375c-5.2734375 1.75781223-10.546875 7.03124973-12.30468723 12.30468804-26.3671875 101.95312473-68.5546875 258.3984375-84.375 312.89062473l-144.14062554-105.46875-26.3671875-184.5703125c-1.75781223-8.78906277-7.03124973-14.06250027-15.8203125-15.8203125-7.03124973 0-15.8203125 3.51562527-17.57812473 12.30468723l-54.49218723 151.17187527-156.44531277 72.07031277c-7.03124973 3.51562527-12.30468723 10.546875-10.546875 19.33593696s8.78906277 14.06250027 15.8203125 14.06250027l189.84375 12.30468723 112.49999973 130.07812527-73.828125 28.12499973c-8.78906277 3.51562527-14.06250027 14.06250027-10.546875 22.85156304 3.51562527 8.78906277 14.06250027 14.06250027 22.85156304 10.546875l98.43749946-36.9140625c5.2734375-1.75781223 8.78906277-7.03124973 10.546875-12.30468804 1.75781223-5.2734375 0-12.30468723-3.51562446-15.8203125L371.37499973 267.984375c-3.51562527-3.51562527-7.03124973-5.2734375-12.30468723-5.2734375l-128.32031223-10.546875 93.16406196-42.1875c8.78906277-3.51562527 15.8203125-10.546875 19.33593777-21.09375l29.88281277-84.375 17.57812473 123.04687473c0 5.2734375 3.51562527 8.78906277 7.03124973 12.30468804L564.734375 366.42187527c3.51562527 1.75781223 7.03124973 3.51562527 10.546875 3.51562446 15.8203125 0 21.09375 0 103.71093777-319.92187446l3.51562446 3.51562446-17.57812473 416.6015625c0 5.2734375 1.75781223 10.546875 5.2734375 14.06250027l126.5625 121.2890625c28.12499973 26.3671875 38.67187473 50.97656277 42.1875 65.03906223 1.75781223 8.78906277 1.75781223 14.06250027 1.75781223 17.57812554-12.30468723 3.51562527-45.70312527 3.51562527-86.13281223-35.15625027l-124.80468777-119.53125027c-3.51562527-3.51562527-8.78906277-5.2734375-14.06249946-5.2734375L195.59375 570.32812473l-5.2734375-5.2734375 66.79687527-24.60937446c8.78906277-3.51562527 14.06250027-14.06250027 10.546875-22.85156304-3.51562527-8.78906277-14.06250027-14.06250027-22.85156304-10.546875l-93.16406196 35.15625027c-5.2734375 0-8.78906277 5.2734375-10.546875 12.30468723-1.75781223 5.2734375 0 12.30468723 5.2734375 15.8203125L178.01562527 600.2109375c3.51562527 3.51562527 8.78906277 5.2734375 14.06249946 5.2734375L608.67968723 559.78124973l119.53125027 114.25781277c61.52343777 59.76562473 123.04687473 49.21874973 137.109375 35.15625027 7.03124973-7.03124973 12.30468723-24.60937527 5.2734375-50.97656277-5.2734375-19.33593777-17.57812473-49.21874973-50.97656277-82.61718777l-121.2890625-116.015625 17.57812554-416.6015625c0-5.2734375-1.75781223-10.546875-5.2734375-14.06249946l-31.640625-29.88281277c0-1.75781223-5.2734375-3.51562527-8.78906277-3.51562527zM323.91406223 468.375c-14.06250027 0-26.3671875 12.30468723-26.3671875 26.3671875s12.30468723 26.3671875 26.3671875 26.3671875 26.3671875-12.30468723 26.3671875-26.3671875c0-15.8203125-10.546875-26.3671875-26.3671875-26.3671875z"  horiz-adv-x="1024" />

    
    <glyph glyph-name="share-alt" unicode="&#59406;" d="M136.99999971 402.74999971C136.99999971 330.37500029 195.875 271.5 268.25000029 271.5c34.12500029 0 64.98749971 13.42500029 88.38749971 34.875l234.74999971-134.13750029A130.6125 130.6125 0 0 1 586.99999971 140.25000029c0-72.37500029 58.87500029-131.24999971 131.25000058-131.25000058s131.24999971 58.87500029 131.24999971 131.25000058-58.87500029 131.24999971-131.24999971 131.24999971c-34.12500029 0-64.98749971-13.42500029-88.38750058-34.875l-234.74999971 134.13750029c2.3625 9.26250029 3.86250029 18.82500029 4.05 28.8l230.66250029 131.81249971c23.43750029-21.44999971 54.29999971-34.875 88.425-34.875C790.62499971 496.5 849.5 555.37500029 849.5 627.74999971S790.62499971 759.00000029 718.25000029 759.00000029 586.99999971 700.125 586.99999971 627.74999971c0-11.09999971 1.8-21.67499971 4.3875-31.98749942L378.2375 473.92500029A131.10000029 131.10000029 0 0 1 268.25000029 534.00000029C195.875 534.00000029 136.99999971 475.125 136.99999971 402.74999971zM718.25000029 196.50000029c31.01249971 0 56.25-25.23750029 56.25-56.25s-25.23750029-56.25-56.25-56.25-56.25 25.23750029-56.25 56.25 25.23750029 56.25 56.25 56.25z m0 487.49999942c31.01249971 0 56.25-25.23750029 56.25-56.25S749.2625 571.49999971 718.25000029 571.49999971 662.00000029 596.7375 662.00000029 627.74999971 687.23749971 683.99999971 718.25000029 683.99999971z m-450-225c31.01249971 0 56.25-25.23750029 56.25-56.25S299.2625 346.49999971 268.25000029 346.49999971 212.00000029 371.73749999999995 212.00000029 402.74999971 237.23749971 458.99999971 268.25000029 458.99999971z"  horiz-adv-x="1024" />

    
    <glyph glyph-name="comment1" unicode="&#62086;" d="M512.10253849 730.06933594C293.64627018 730.06933594 116.59472599 586.2342681800001 116.59472599 408.71923828c0-73.53973388 30.74455261-140.8996582 81.72798158-195.12748718C175.30291692 152.72062683000001 127.40939275 101.11921691999999 126.63691655 100.50123596000003c-10.19668579-10.81466675-12.9776001-26.57318115-7.10678101-40.16876221S138.84204044 37.930664060000026 153.67358341 37.930664060000026c95.01457214 0 169.94476318 39.70527649 214.90287781 71.53129578C413.22558537 95.40289307 461.42810002 87.36914062000005 512.10253849 87.36914062000005c218.45626831 0 395.5078125 143.83506775 395.5078125 321.35009766S730.55880681 730.06933594 512.10253849 730.06933594z m0-568.54248047c-41.25022889 0-82.03697205 6.33430481-121.12426758 18.69392395l-35.0704193 11.12365722-30.12657166-21.32034301c-22.09281922-15.60401917-52.37388611-33.06198119-88.83476258-44.80361939 11.27815247 18.69392395 22.24731445 39.70527649 30.74455262 62.10708618l16.37649536 43.41316224-31.82601929 33.67996216C224.27790777 294.23826598999995 190.75244083 343.52224732 190.75244083 408.71923828c0 136.26480102 144.14405823 247.19238281 321.35009766 247.19238281s321.35009766-110.92758179 321.35009766-247.19238281-144.14405823-247.19238281-321.35009766-247.19238281z"  horiz-adv-x="1024" />

    
    <glyph glyph-name="suijisenlin" unicode="&#58895;" d="M500.6 296.20000000000005c19.7-24.5 41.5-47.7 67.1-67.9 56.4-44.5 122.9-67.1 203.1-69.1L744 132.5c-14.1-14.1-14.1-36.9 0-50.9 7-7 16.2-10.5 25.5-10.5s18.4 3.5 25.5 10.5l84 84c7.4 7.4 10.9 17.2 10.5 26.9 2.9 11.8-0.3 24.8-9.5 34l-84 84c-14.1 14.1-36.9 14.1-50.9 0s-14.1-36.9 0-50.9l28.4-28.4c-117.4 2.6-177.1 56.5-230 127.1-7.2-10.2-14.4-20.8-21.9-31.6-6.9-10.2-13.9-20.3-21-30.5zM382.8 556.4C323.4 603.2 252.6 626 166.5 626c-19.9 0-36-16.1-36-36s16.1-36 36-36c145.4 0 205.2-75 267.8-165.5 14.2 20.7 28.7 41.8 44.3 62.2-27.2 38.1-57.2 75.3-95.8 105.7zM891.5 557.6c0.4 9.7-3.1 19.5-10.5 26.9l-84 84c-14.1 14.1-36.9 14.1-50.9 0-14.1-14.1-14.1-36.9 0-50.9l26.7-26.7c-80.2-2-146.7-24.7-203.1-69.1-51.1-40.3-87.1-92.7-121.8-143.4C380.7 280.5 322.8 196 168.5 196c-19.9 0-36-16.1-36-36s16.1-36 36-36c86.1 0 156.9 22.8 216.3 69.6 51.4 40.5 87.5 93.1 122.4 144 65.5 95.4 122.2 178.1 268.2 181.3L747 490.5c-14.1-14.1-14.1-36.9 0-50.9 7-7 16.2-10.5 25.5-10.5s18.4 3.5 25.5 10.5l84 84c9.2 9.2 12.4 22.2 9.5 34z"  horiz-adv-x="1024" />

    
    <glyph glyph-name="forward" unicode="&#59630;" d="M825.8 398L538.4 646.1c-10.7 9.2-26.4 0.9-26.4-14v-496.3c0-14.9 15.7-23.2 26.4-14L825.8 370c8.3 7.2 8.3 20.8 0 28z m-320 0L218.4 646.1c-10.7 9.2-26.4 0.9-26.4-14v-496.3c0-14.9 15.7-23.2 26.4-14L505.8 370c4.1 3.6 6.2 8.8 6.2 14 0 5.2-2.1 10.4-6.2 14z"  horiz-adv-x="1024" />

    
    <glyph glyph-name="zoomout" unicode="&#58937;" d="M426.666667 110.93333299999995c-98.679467 0-183.995733 35.259733-253.559467 104.840534S68.266667 370.653867 68.266667 469.333333s35.2768 183.995733 104.840533 253.559467S327.9872 827.733333 426.666667 827.733333c98.082133 0 183.381333-35.259733 253.508266-104.789333C749.806933 653.329067 785.066667 568.0128 785.066667 469.333333c0-36.078933-4.522667-70.638933-13.4144-102.7072-16.469333-55.227733-46.336-105.0112-88.917334-148.343466a15.752533 15.752533 0 0 0-2.6112-3.4816c-30.225067-29.610667-63.624533-53.367467-99.242666-70.6048C534.272 122.09493299999997 482.423467 110.93333299999995 426.666667 110.93333299999995z m0 682.666667c-89.2928 0-166.485333-31.914667-229.4272-94.839467S102.4 558.626133 102.4 469.333333s31.914667-166.485333 94.839467-229.4272C260.181333 176.96426699999995 337.373867 145.06666700000005 426.666667 145.06666700000005c50.653867 0 97.5872 10.069333 139.451733 29.917866 31.197867 15.086933 60.689067 35.874133 87.586133 61.7472a15.394133 15.394133 0 0 0 2.4064 3.1744c39.850667 39.850667 67.703467 85.674667 82.756267 136.174934 7.970133 28.7744 12.066133 60.245333 12.066133 93.252266 0 89.2928-31.8976 166.485333-94.839466 229.4272C592.64 761.668267 515.4304 793.6 426.666667 793.6zM938.666667-77.65333299999998a33.9968 33.9968 0 0 0-24.132267 10.001066l-120.32 120.32a34.133333 34.133333 0 1 0 48.264533 48.264534l120.32-120.32A34.133333 34.133333 0 0 0 938.666667-77.65333299999998zM597.333333 433.493333H256a34.133333 34.133333 0 0 0 0 68.266667h341.333333a34.133333 34.133333 0 0 0 0-68.266667zM692.309333 251.13599999999997l150.186667-150.186667-48.2816-48.2816-150.186667 150.186667z"  horiz-adv-x="1024" />

    
    </font>
</defs>
</svg>
